<?xml version="1.0" encoding="UTF-8" standalone="no"?>
<!-- Created with Inkscape (http://www.inkscape.org/) -->

<svg
   width="210mm"
   height="297mm"
   viewBox="0 0 210 297"
   version="1.1"
   id="svg1"
   xml:space="preserve"
   inkscape:version="1.3.2 (091e20e, 2023-11-25, custom)"
   sodipodi:docname="alterra.svg"
   inkscape:export-filename="alterra.png"
   inkscape:export-xdpi="96"
   inkscape:export-ydpi="96"
   xmlns:inkscape="http://www.inkscape.org/namespaces/inkscape"
   xmlns:sodipodi="http://sodipodi.sourceforge.net/DTD/sodipodi-0.dtd"
   xmlns="http://www.w3.org/2000/svg"
   xmlns:svg="http://www.w3.org/2000/svg"><sodipodi:namedview
     id="namedview1"
     pagecolor="#505050"
     bordercolor="#eeeeee"
     borderopacity="1"
     inkscape:showpageshadow="0"
     inkscape:pageopacity="0"
     inkscape:pagecheckerboard="0"
     inkscape:deskcolor="#505050"
     inkscape:document-units="mm"
     inkscape:zoom="0.72426347"
     inkscape:cx="415.59462"
     inkscape:cy="523.98059"
     inkscape:window-width="1920"
     inkscape:window-height="1009"
     inkscape:window-x="-8"
     inkscape:window-y="-8"
     inkscape:window-maximized="1"
     inkscape:current-layer="layer1" /><defs
     id="defs1" /><g
     inkscape:label="Calque 1"
     inkscape:groupmode="layer"
     id="layer1"><path
       style="fill:#000000;stroke-width:1.44306"
       d="m 69.43353,86.578797 c 0.68767,-0.19099 1.08366,-0.7518 2.48991,-3.52626 l 1.24756,-2.46138 2.83315,-10e-4 2.83314,-0.001 0.64432,1.25434 c 0.35437,0.68988 0.79215,1.39319 0.97284,1.56291 l 0.32854,0.30855 h 3.53581 c 5.21337,0 5.11708,0.19694 2.40182,-4.91198 -0.76453,-1.43852 -2.37039,-4.4814 -3.56858,-6.76197 -1.19819,-2.28056 -2.29349,-4.27566 -2.43397,-4.43354 l -0.25546,-0.28707 H 44.38832 8.3140211 l -0.378549,0.31853 c -0.218253,0.18364 -0.74381,1.03454 -1.241136,2.00945 -0.904119,1.77234 -4.70926,8.95078 -5.73185105,10.8132 -1.089983,1.98515 -1.184363,2.42482 -0.63199,2.94408 l 0.329024,0.3093 3.46660605,0.0332 c 2.629436,0.0251 3.543633,-0.007 3.785567,-0.13103 0.210145,-0.10808 0.571958,-0.65262 1.060552,-1.59602 l 0.741594,-1.43191 h 2.8517469 2.851749 l 1.212409,2.32841 c 1.643519,3.15634 1.778716,3.39348 1.999019,3.50627 0.105258,0.0538 11.272063,0.12713 24.815128,0.16289 13.54306,0.0357 24.82469,0.0784 25.07028,0.095 0.24561,0.0166 0.65932,-0.029 0.91936,-0.10131 z m -52.609723,-8.19075 c -1.70887,-3.24467 -3.270868,-6.08661 -3.471108,-6.31542 -0.506419,-0.57869 -1.064896,-0.57479 -1.57923,0.0115 -0.206213,0.23487 -1.429244,2.44527 -2.7178459,4.912 l -2.342913,4.48496 h -1.824608 c -1.003535,0 -1.824609,-0.0198 -1.824609,-0.0439 0,-0.0241 1.398961,-2.70818 3.108801,-5.96456 l 3.108804,-5.92069 30.2863529,-0.0404 c 16.657499,-0.0222 32.412049,-0.001 35.010129,0.0462 l 4.72376,0.0866 3.05888,5.81514 c 1.68238,3.19832 3.07799,5.86157 3.10139,5.91834 0.0234,0.0567 -0.73805,0.10318 -1.69207,0.10318 h -1.73461 l -0.42535,-0.66981 c -0.46457,-0.73158 -1.84946,-3.29743 -3.57903,-6.63107 -0.60886,-1.17356 -1.23211,-2.22134 -1.38498,-2.32841 -0.33637,-0.2356 -0.98974,-0.25371 -1.27016,-0.0352 -0.2644,0.20602 -6.60606,12.0572 -6.60606,12.34527 0,0.0825 -8.41835,0.12612 -24.41926,0.12612 H 19.930841 Z m 10.448784,3.66035 c 0.619317,-0.70521 0.168334,-1.81416 -0.759705,-1.86809 -0.231247,-0.013 -1.396468,-0.0277 -2.58938,-0.0319 l -2.168931,-0.007 -0.0638,-3.39977 c -0.0584,-3.11255 -0.08432,-3.42242 -0.306838,-3.66804 -0.348342,-0.38452 -1.138217,-0.36584 -1.540476,0.0364 -0.167589,0.16758 -0.341308,0.4998 -0.386043,0.73827 -0.04473,0.23845 -0.06289,2.078 -0.04035,4.08787 0.05267,4.69636 -0.138592,4.34369 2.414678,4.45228 1.010122,0.043 2.582954,0.0577 3.495181,0.0328 1.593453,-0.0436 1.669869,-0.0583 1.945659,-0.3723 z m 18.365599,0.0463 c 0.40516,-0.38062 0.39859,-1.11568 -0.0143,-1.59574 l -0.30785,-0.35797 -2.59469,-0.0303 c -2.22282,-0.026 -2.593179,-0.058 -2.584069,-0.22327 0.006,-0.10607 0.0202,-0.42553 0.0319,-0.70982 l 0.0213,-0.51686 2.455989,0.0247 c 2.61711,0.0264 3.07307,-0.0543 3.23758,-0.57262 0.17029,-0.53656 0.0695,-1.0282 -0.27073,-1.3209 -0.32174,-0.27676 -0.42418,-0.28707 -2.85701,-0.28707 -1.38782,0 -2.547229,-0.0238 -2.576469,-0.0531 -0.0292,-0.0291 -0.0335,-0.34168 -0.009,-0.69439 l 0.0437,-0.64128 2.529899,-0.0393 c 2.47642,-0.0384 2.53686,-0.0457 2.85883,-0.34853 0.44859,-0.42184 0.45591,-1.17011 0.0158,-1.61026 -0.30706,-0.30707 -0.35864,-0.31377 -2.64737,-0.34432 -2.992249,-0.04 -4.039829,-5.2e-4 -4.454189,0.16767 -0.66215,0.26875 -0.68931,0.46487 -0.65822,4.75157 0.0316,4.36405 0.0446,4.43655 0.8332,4.66734 0.23587,0.069 1.756079,0.0973 3.533279,0.0657 2.98211,-0.0531 3.13221,-0.0677 3.41288,-0.3313 z m 3.59633,0.26493 c 0.66456,-0.23167 0.90754,-0.87553 0.90754,-2.40494 v -1.28097 h 2.33807 2.33807 l 0.3093,0.3289 c 0.27205,0.28929 0.31736,0.48132 0.37628,1.59445 0.0573,1.08173 0.1078,1.30635 0.34788,1.54644 0.39667,0.39667 1.10811,0.36001 1.54764,-0.0798 0.3209,-0.32106 0.33401,-0.39081 0.33401,-1.77697 0,-1.24762 -0.0405,-1.52932 -0.29968,-2.08243 l -0.29966,-0.63962 0.2522,-0.49809 c 0.37504,-0.74064 0.45086,-1.26705 0.28316,-1.9661 -0.16852,-0.70249 -0.92408,-1.66299 -1.57153,-1.9978 -0.51889,-0.26833 -3.10843,-0.41678 -5.69465,-0.32645 -2.33877,0.0817 -2.47489,0.15137 -2.62375,1.34282 -0.11558,0.92507 -0.008,7.48131 0.12755,7.79028 0.0825,0.18763 0.38691,0.38433 0.90832,0.58685 0.007,0.003 0.19573,-0.0587 0.41924,-0.13666 z m 0.90754,-6.60353 v -0.62115 l 2.41748,-0.0234 c 2.28441,-0.0221 2.43189,-0.009 2.67926,0.23839 0.3266,0.3266 0.32767,0.45109 0.007,0.77213 -0.23727,0.23725 -0.42529,0.25516 -2.67928,0.25516 h -2.42409 z m 10.76657,6.37635 c 0.43035,-0.36675 0.58841,-0.96991 0.58841,-2.24535 v -1.21895 l 2.37859,0.0348 c 2.37702,0.0346 2.37875,0.0349 2.61892,0.35682 0.18419,0.24686 0.24724,0.57641 0.26985,1.41066 0.0427,1.57379 0.51906,2.2043 1.43667,1.90146 0.71722,-0.23671 0.82366,-0.50866 0.8218,-2.09971 -10e-4,-1.1928 -0.0459,-1.5025 -0.29212,-2.03486 l -0.29048,-0.62792 0.25136,-0.50803 c 0.31643,-0.63955 0.4098,-1.6992 0.20452,-2.3212 -0.18536,-0.56164 -0.90649,-1.39964 -1.44337,-1.67726 -0.53117,-0.27469 -3.1639,-0.43198 -5.62177,-0.33586 -1.85555,0.0726 -2.05448,0.10347 -2.3603,0.36637 l -0.33397,0.28711 -0.0369,4.00847 c -0.0234,2.53857 0.0115,4.13546 0.0947,4.35481 0.14794,0.38911 0.79029,0.71934 1.2043,0.61913 0.14792,-0.0358 0.37736,-0.15748 0.50984,-0.27039 z m 0.57615,-5.80999 c -0.0302,-0.0302 -0.0339,-0.3172 -0.009,-0.63792 l 0.0463,-0.58313 h 2.35585 c 1.37995,0 2.45807,0.0547 2.60262,0.13204 0.15778,0.0844 0.24679,0.2669 0.24679,0.50585 0,0.23897 -0.089,0.42142 -0.24679,0.50585 -0.23476,0.12569 -4.87627,0.19743 -4.99644,0.0773 z m -28.898299,5.6257 c 0.25196,-0.34023 0.26852,-0.52639 0.27802,-3.12582 0.006,-1.52023 0.0199,-2.97329 0.0319,-3.22905 l 0.0218,-0.465 1.52168,-0.0453 c 1.30277,-0.0388 1.57351,-0.0838 1.88187,-0.31317 0.52869,-0.39316 0.56251,-1.08047 0.0771,-1.56593 -0.47897,-0.47897 -0.91999,-0.51967 -5.202993,-0.48028 -4.194716,0.0385 -4.401654,0.0997 -4.401654,1.29885 0,0.50797 0.347497,0.88695 0.917874,1.00102 0.214424,0.0429 0.956816,0.0779 1.649757,0.0779 h 1.259894 l 0.0198,0.60602 c 0.01082,0.33332 0.0053,1.72558 -0.01212,3.09392 -0.03227,2.50978 0.0257,2.94954 0.443924,3.36775 0.34929,0.34929 1.180861,0.22788 1.513258,-0.22095 z m -21.612769,-3.74016 c 0,-0.0937 1.569864,-2.85509 1.603816,-2.82114 0.02185,0.0218 0.383522,0.68785 0.803709,1.48001 l 0.763976,1.44026 -1.585751,-0.0329 c -0.872163,-0.018 -1.58575,-0.0479 -1.58575,-0.0664 z m 63.536928,0.004 c 0,-0.0433 0.31577,-0.65461 0.7017,-1.35845 0.38595,-0.70386 0.70172,-1.32866 0.70172,-1.38849 0,-0.34338 0.27573,0.0462 0.8936,1.26278 0.38315,0.75433 0.71679,1.41458 0.74144,1.46721 0.0247,0.0527 -0.64892,0.0957 -1.49682,0.0957 -0.8479,0 -1.54164,-0.0355 -1.54164,-0.0788 z M 14.244354,62.644517 c 1.393941,-1.37789 3.998467,-3.88804 5.787835,-5.5781 1.789367,-1.69005 4.717425,-4.51226 6.506793,-6.27156 1.789368,-1.7593 5.049139,-4.91867 7.243939,-7.02082 2.19479,-2.10216 5.17405,-4.96155 6.620569,-6.35421 2.82576,-2.72052 3.49094,-3.27298 3.94076,-3.27298 0.43201,0 1.81776,1.23789 6.56331,5.86298 2.35074,2.29107 4.73337,4.59059 5.29475,5.11005 0.56137,0.51946 3.71908,3.55952 7.01713,6.75571 5.64639,5.47199 11.06185,10.68049 12.9726,12.47682 l 0.84819,0.7974 h 0.81195 c 1.01062,0 1.44031,-0.24393 1.31759,-0.74801 -0.045,-0.18504 -1.27675,-2.57556 -2.73709,-5.31224 -1.46035,-2.73668 -3.30145,-6.21016 -4.09134,-7.71884 -0.78989,-1.50868 -1.76649,-3.34589 -2.17021,-4.08269 -0.79497,-1.45083 -9.91646,-18.60983 -11.22453,-21.11519 -1.80806,-3.46297 -2.37876,-4.53232 -3.13214,-5.86887 -0.4351,-0.77188 -1.58056,-2.92486 -2.54547,-4.78441 -0.96492,-1.85953 -2.08393,-3.98381 -2.4867,-4.72061 -0.40278,-0.7368 -1.20837,-2.2582502 -1.79022,-3.3809802 -1.43048,-2.76029 -3.13387,-5.852835 -3.66568,-6.65512704 -0.48346,-0.729363 -0.8716,-0.908921 -1.41027,-0.652416 -0.45615,0.217211 -0.79285,0.766671 -2.60153,4.24552304 -0.83911,1.61394 -1.933259,3.6808 -2.431449,4.59302 -0.4982,0.91224 -1.49009,2.7781502 -2.20421,4.1464902 -1.73029,3.31547 -3.13429,5.94614 -4.920388,9.21939 -0.813236,1.49035 -2.586136,4.834 -3.939779,7.43035 -1.353642,2.59633 -2.819691,5.38086 -3.257886,6.18783 -1.017154,1.87317 -4.682778,8.7805 -6.635296,12.50326 -0.828081,1.57884 -1.889921,3.55959 -2.359644,4.40165 -0.469723,0.84205 -1.587916,2.93763 -2.484876,4.65682 -0.896958,1.7192 -2.032521,3.86968 -2.523473,4.77885 -1.0601619,1.96326 -1.1584309,2.24691 -0.9041809,2.60992 0.16026,0.22879 0.318132,0.26628 1.1215119,0.26628 h 0.934996 z m 56.484746,1.1273 c -0.78166,-0.75079 -4.34127,-4.20345 -7.91021,-7.67259 -9.66299,-9.39271 -9.9873,-9.70457 -10.95403,-10.53359 -0.49096,-0.42102 -2.28763,-2.11471 -3.9926,-3.76374 -1.9966,-1.93108 -3.20896,-3.01235 -3.40622,-3.03791 -0.16844,-0.0218 -0.4476,0.0357 -0.62036,0.12757 -0.37551,0.19998 -4.862969,4.41072 -8.948209,8.39645 -7.088409,6.91573 -11.486203,11.16542 -13.206688,12.76193 -2.575738,2.39013 -4.849671,4.61135 -4.992288,4.87659 -0.114175,0.21233 1.241269,0.22295 27.665885,0.2168 l 27.78595,-0.006 z"
       id="path1"
       sodipodi:nodetypes="cscccsscsssscccsssscccscccsccscccscscssscsccssscssssssccccccssssscccccscccsccssscccccscscsccccscccsssssccsssssccccccsscscccsccscscccssssscccscccccssscccccscscscssscccscccsscccccsssssccsssssssssscscsssssssssssssssssssssscsccssscsssccc" /></g></svg>
