<?xml version="1.0" encoding="UTF-8" standalone="no"?>
<!-- Created with Inkscape (http://www.inkscape.org/) -->

<svg
   width="210mm"
   height="297mm"
   viewBox="0 0 210 297"
   version="1.1"
   id="svg1"
   xml:space="preserve"
   inkscape:version="1.3.2 (091e20e, 2023-11-25, custom)"
   sodipodi:docname="beatsaber.svg"
   xmlns:inkscape="http://www.inkscape.org/namespaces/inkscape"
   xmlns:sodipodi="http://sodipodi.sourceforge.net/DTD/sodipodi-0.dtd"
   xmlns="http://www.w3.org/2000/svg"
   xmlns:svg="http://www.w3.org/2000/svg"><sodipodi:namedview
     id="namedview1"
     pagecolor="#505050"
     bordercolor="#eeeeee"
     borderopacity="1"
     inkscape:showpageshadow="0"
     inkscape:pageopacity="0"
     inkscape:pagecheckerboard="0"
     inkscape:deskcolor="#505050"
     inkscape:document-units="mm"
     inkscape:zoom="1.4142136"
     inkscape:cx="446.89147"
     inkscape:cy="591.49481"
     inkscape:window-width="1920"
     inkscape:window-height="1009"
     inkscape:window-x="-8"
     inkscape:window-y="-8"
     inkscape:window-maximized="1"
     inkscape:current-layer="layer1" /><defs
     id="defs1" /><g
     inkscape:label="Calque 1"
     inkscape:groupmode="layer"
     id="layer1"><path
       style="fill:#000000"
       d="m 36.415456,122.75588 c 0.70487,-0.80584 2.20118,-2.4368 3.32513,-3.62436 1.12394,-1.18755 2.63332,-2.78347 3.35417,-3.54649 0.72085,-0.76301 1.34126,-1.35293 1.3787,-1.31094 0.3651,0.40958 3.18374,8.60657 3.66547,8.76716 0.12478,0.0416 0.16182,-0.0227 0.10236,-0.17767 -0.21812,-0.5684 -2.04072,-9.54731 -2.79247,-13.75689 -0.64183,-3.59409 -0.80231,-5.04237 -0.52026,-4.69515 3.86238,4.75464 -1.73241,-2.03702 9.07273,11.67403 0.28845,0.40292 1.03952,1.39191 1.66904,2.19775 0.62952,0.80584 1.4565,1.93363 1.83774,2.5062 0.62173,0.93378 0.95635,1.25729 0.95635,0.92461 0,-0.12342 -1.35934,-2.47458 -2.47399,-4.27907 -1.14646,-1.85599 -6.5296,-11.3756 -8.37244,-14.8059 -0.41013,-0.76343 -0.84971,-1.55023 -0.97685,-1.74845 -0.42476,-0.66223 -0.11237,-0.49773 1.0495,0.55265 0.63367,0.57286 2.04591,1.8397 3.13831,2.81519 3.34708,2.98887 3.67496,3.28703 4.53582,4.12464 0.45825,0.44587 0.87466,0.8107 0.92537,0.81074 0.0507,4e-5 0.69982,0.57261 1.44245,1.27238 0.74264,0.69977 1.21672,1.0878 1.3495,1.23001 0.17256,0.18779 1.12705,0.95955 2.68644,2.47139 1.47963,1.43452 2.05994,1.87068 1.58303,1.1898 -0.12094,-0.17267 -0.97926,-1.12696 -1.90738,-2.12064 -0.92812,-0.99369 -2.66161,-2.91715 -3.8522,-4.27436 -0.10066,-0.11475 -7.60491,-8.649 -11.58219,-12.147172 l -0.65619,-0.57714 0.15633,-4.51093 c 0.086,-2.48101 0.23009,-5.57548 0.32024,-6.87659 0.14858,-2.14421 0.13866,-2.41853 -0.10604,-2.93034 -0.14849,-0.31057 -0.66879,-1.60571 -1.15623,-2.87809 l -0.88625,-2.31342 -0.0156,-4.41366 -0.0156,-4.41366 0.73661,-0.0937 c 0.40513,-0.0515 3.3392,-0.16984 6.52015,-0.26288 3.18096,-0.093 6.61639,-0.22357 7.6343,-0.29005 1.0179,-0.0665 2.68357,-0.11352 3.70147,-0.10453 1.73247,0.0153 1.90161,0.0445 2.64669,0.45748 0.99225,0.54996 1.57438,1.15849 2.19897,2.29869 0.62018,1.13216 1.98185,4.36315 2.6802,6.35962 0.68207,1.94992 1.6852,4.70355 2.07882,5.70644 0.2774,0.70677 1.37738,3.65265 2.54946,6.82774 0.29353,0.79516 0.52541,1.22099 0.61569,1.1307 0.15641,-0.15641 0.0555,-0.54607 -1.08231,-4.17985 -0.38513,-1.22997 -0.83483,-2.75682 -0.99933,-3.39302 -0.1645,-0.63619 -0.3609,-1.36491 -0.43645,-1.61939 -0.0755,-0.25448 -0.41347,-1.43432 -0.75093,-2.62188 -0.33746,-1.18756 -0.78441,-2.75802 -0.99322,-3.48991 -0.20881,-0.7319 -0.44861,-1.46062 -0.53289,-1.6194 -0.31779,-0.59867 -0.65114,-3.02907 -0.88786,-6.47327 -0.21142,-3.07608 -0.22961,-5.71459 -0.13316,-19.31708 0.0786,-11.08608 0.0632,-15.75436 -0.0521,-15.75436 -0.17852,0 -0.26062,0.99776 -0.50129,6.09201 -0.32752,6.93244 -0.48482,9.76886 -0.85104,15.3457 -0.42747,6.50975 -0.44268,6.65158 -0.85486,7.97395 -0.52703,1.69077 -1.43587,2.98746 -2.46797,3.52119 -0.53859,0.27851 -5.66675,0.92472 -13.40793,1.68956 -2.16305,0.21372 -4.48804,0.4725 -5.16664,0.57509 -0.67861,0.10258 -1.44203,0.18907 -1.69651,0.19219 l -0.46269,0.006 -0.0439,-12.49248 c -0.0241,-6.87086 -0.004,-12.70069 0.0449,-12.95516 0.0718,-0.37447 0.24194,-0.53351 0.89216,-0.83416 0.44187,-0.20432 1.15041,-0.59534 1.57454,-0.86895 0.72231,-0.46597 1.47961,-0.88796 3.93281,-2.19149 1.13055,-0.60072 5.77038,-3.21514 6.31064,-3.48837 0.6292,-0.3107 1.21912,-0.62266 1.31094,-0.69326 0.0918,-0.0706 0.72217,-0.42578 1.40077,-0.78931 0.6786,-0.36352 1.84672,-1.00622 2.59581,-1.42823 1.27856,-0.72028 1.35565,-0.79222 1.25859,-1.17454 -0.0569,-0.22399 -0.29515,-1.32817 -0.52953,-2.45373 -0.23437,-1.12556 -0.4727,-2.09304 -0.52961,-2.14995 -0.095,-0.095 -7.19379,0.425 -13.12855,0.96174 -1.3572,0.12275 -3.05757,0.24144 -3.77859,0.26376 l -1.31094,0.0406 -0.0432,-1.78876 -0.0432,-1.78877 2.5109,-0.11174 c 1.38099,-0.0615 2.6844,-0.13301 2.89647,-0.15901 0.21206,-0.026 0.97549,-0.0931 1.69651,-0.14906 0.72101,-0.056 2.59488,-0.21425 4.16416,-0.35169 1.68788,-0.14782 4.58547,-0.25558 7.09449,-0.26385 3.71901,-0.0122 4.35522,0.0212 5.16664,0.27182 3.11776,0.96285 4.91999,2.90822 6.16484,6.65449 0.2255,0.6786 0.47207,1.37263 0.54793,1.54228 0.15288,0.34187 1.18666,3.43647 1.39108,4.16416 0.21154,0.75305 0.40187,1.4415 0.91674,3.3159 0.46302,1.68564 0.58868,2.16865 0.91279,3.50869 0.58194,2.23062 1.10382,4.44464 1.57039,6.74749 0.54804,2.71629 0.6659,4.70537 0.90704,15.30752 0.26851,11.80588 0.14761,20.83263 -0.31312,23.3794 -0.0945,0.52234 -0.37642,1.58906 -0.62649,2.37048 -0.49697,1.55291 -1.44048,2.9423 -2.44891,3.60619 -0.29689,0.19545 -0.81741,0.57041 -1.15671,0.83323 -0.74431,0.57654 -2.14285,1.21013 -3.39606,1.53855 -1.89117,0.49561 -3.99561,0.66551 -14.57152,1.17643 -1.82375,0.0881 -3.90583,0.20742 -4.62684,0.26513 -1.27714,0.10223 -1.31218,0.11561 -1.35876,0.51883 -0.0704,0.60921 0.36006,1.3144 1.13623,1.8615 1.16731,1.114492 2.61458,1.882502 3.86688,2.962422 0.2312,0.21255 3.60179,2.50854 4.5089,3.07139 0.74751,0.46381 1.53122,0.96445 3.33674,2.1315 0.59378,0.38381 1.54807,0.99327 2.12064,1.35437 0.57257,0.36109 1.04104,0.70083 1.04104,0.75499 0,0.0542 0.19086,0.18532 0.42413,0.29148 0.23327,0.10615 1.0463,0.64028 1.80674,1.18694 0.76044,0.54667 1.41974,0.95681 1.46512,0.91143 0.0454,-0.0454 -0.33388,-0.47004 -0.84281,-0.9437 -0.50893,-0.47365 -1.82283,-1.69978 -2.91977,-2.72474 -1.09694,-1.02495 -2.143,-2.00236 -2.32456,-2.17201 -0.35268,-0.32953 -0.98048,-0.87946 -2.55297,-2.23631 -0.54069,-0.46654 -1.40552,-1.22997 -1.92185,-1.69651 -0.51632,-0.46654 -1.31684,-1.18743 -1.77892,-1.60198 l -0.84014,-0.753722 1.31094,0.0824 c 0.72102,0.0453 2.07437,0.26098 3.00745,0.479222 0.93308,0.21824 2.52934,0.57811 3.54725,0.79971 2.68865,0.58533 4.74491,1.08494 6.32335,1.53639 0.76343,0.21834 1.5424,0.42965 1.73104,0.46956 0.18864,0.0399 0.51585,0.13829 0.72712,0.21862 0.21128,0.0803 0.41777,0.0916 0.45888,0.0251 0.0411,-0.0665 -0.35551,-0.27767 -0.88135,-0.46925 -2.68842,-0.97946 -5.86474,-2.05599 -6.89388,-2.3365 -2.35056,-0.640682 -3.8557,-1.123242 -3.8557,-1.236162 0,-0.12134 1.232,-0.22623 4.47262,-0.3808 3.27194,-0.15607 6.1099,-0.83819 8.46964,-2.03572 1.61448,-0.81932 3.7715,-2.94202 4.53954,-4.46731 0.50863,-1.0101 0.94244,-2.06482 1.09731,-2.66785 0.73725,-2.87066 0.86585,-4.39839 0.96071,-11.41289 0.12951,-9.57677 -0.22226,-20.87001 -0.88153,-28.30086 -0.25096,-2.82869 -0.56776,-4.55621 -1.5414,-8.40544 -0.16093,-0.63619 -0.40472,-1.60783 -0.54176,-2.15919 -0.6679,-2.68709 -0.55413,-2.3084 -2.78001,-9.25369 -0.84369,-2.63253 -1.03779,-3.20811 -1.40429,-4.16416 -1.53068,-3.99303 -5.25804,-6.47296 -10.44228,-6.94759 -1.88255,-0.17235 -5.96886,-0.0233 -9.23628,0.33686 -0.82729,0.0912 -1.62156,0.12076 -1.76504,0.0657 -0.27625,-0.10601 0.28487,-0.50561 2.42096,-1.72407 0.55136,-0.3145 1.61533,-0.94231 2.36438,-1.39512 0.74904,-0.45282 1.41722,-0.8233 1.48484,-0.8233 0.0676,0 0.21241,-0.10781 0.32177,-0.23957 0.10936,-0.13177 1.05482,-0.76667 2.10104,-1.4109 1.87204,-1.15274 2.44002,-1.58832 2.07115,-1.58832 -0.0974,0 -1.26842,0.57807 -2.60221,1.28461 -2.31317,1.22534 -5.64964,2.87976 -7.97728,3.9556 -0.59378,0.27444 -2.05124,0.97022 -3.23879,1.54616 -1.18756,0.57595 -2.42398,1.13068 -2.7476,1.23273 -0.53222,0.16783 -1.6479,0.10454 -1.6479,-0.0935 0,-0.23879 1.14929,-2.00283 3.36159,-5.15968 0.56865,-0.81143 1.34081,-1.92187 1.71591,-2.46765 0.78001,-1.13491 1.95709,-2.7019805 2.3601,-3.1420405 0.30642,-0.3346 0.36183,-0.7035 0.10566,-0.7035 -0.0925,0 -0.35274,0.22093 -0.57836,0.49095 -0.36867,0.44124 -0.98327,1.0970705 -3.7487,4.0001905 -0.45412,0.47672 -1.51969,1.61783 -2.36795,2.53578 -0.84825,0.91796 -1.75049,1.88747 -2.00497,2.15448 -0.25447,0.26701 -0.69727,0.77422 -0.984,1.12714 -0.28673,0.35291 -0.57416,0.64166 -0.63875,0.64166 -0.0646,0 -0.16815,-1.2851 -0.23014,-2.85578 -0.062,-1.57069 -0.17014,-2.89128 -0.24033,-2.93466 -0.33431,-0.20662 -0.41975,0.92598 -0.51245,6.79292 -0.055,3.47785 -0.13208,7.08679 -0.1714,8.01987 -0.0393,0.93308 -0.11002,3.50098 -0.15713,5.70644 -0.0471,2.20546 -0.1696,4.56515 -0.27223,5.24376 -0.18491,1.22277 -0.18744,1.20203 -0.28201,-2.31342 -0.0525,-1.95099 -0.10453,-9.32502 -0.11567,-16.38675 -0.0173,-10.9813805 -0.052,-12.8394905 -0.23934,-12.8394905 -0.12049,0 -0.25648,0.19085 -0.30219,0.42412 -0.12219,0.62356 -0.25793,5.1569505 -0.40984,13.6877605 -0.17624,9.89637 -0.54631,16.25864 -0.92254,15.85989 -0.10924,-0.11579 -0.24425,-6.90387 -0.60148,-30.2421505 -0.0639,-4.17791 -0.1661,-7.64603498 -0.22701,-7.70693698 -0.15757,-0.157575 -0.39653,0.273297 -0.40407,0.728591 -0.004,0.212064 -0.0733,1.46131598 -0.15505,2.77610598 -0.0818,1.3148 -0.25253,5.34015 -0.37947,8.9452405 -0.22383,6.35647 -0.45036,11.66217 -0.63743,14.9293 -0.0627,1.09531 -0.14604,1.57035 -0.26837,1.52989 -0.19149,-0.0633 -0.35667,-2.32629 -0.79051,-10.82987 -0.49166,-9.6371505 -0.54655,-10.4750205 -0.69591,-10.6243805 -0.0831,-0.0831 -0.20423,-0.0979 -0.26926,-0.033 -0.15756,0.15725 -0.33151,9.1623405 -0.35929,18.6001505 -0.0124,4.19887 -0.0519,7.68292 -0.0879,7.74234 -0.0965,0.15932 -0.95594,-0.46101 -3.37173,-2.43353 -1.18801,-0.97001 -3.54806,-2.8768 -5.24457,-4.23729 -5.00142,-4.01083 -5.79514,-4.65771 -6.66067,-5.42846 -0.80001,-0.71241 -1.12785,-0.88351 -1.12785,-0.58861 0,0.0792 0.5463,0.72117 1.21401,1.42662 0.6677,0.70544 1.41378,1.51826 1.65795,1.80627 0.60065,0.70847 1.71382,1.93251 3.52118,3.87186 0.83005,0.89067 1.83059,1.99524 2.22342,2.45462 0.39283,0.45937 1.02655,1.1663 1.40827,1.57095 0.71437,0.75731 1.38805,1.59554 1.38805,1.72708 0,0.0902 -1.98845,-0.0303 -2.30981,-0.13989 -0.12525,-0.0427 -1.34228,-0.14146 -2.70451,-0.21941 -1.36223,-0.078 -3.48063,-0.24324 -4.70757,-0.3673 -1.22694,-0.12407 -2.71661,-0.2642 -3.31039,-0.31142 -2.95744,-0.23516 -4.545131,-0.42971 -4.84262,-0.46373 -0.308925,-0.0353 -2.2379701,-0.12846 -2.2943501,0.0407 -0.0346,0.10367 0.0934,0.18206 0.2995201,0.18346 0.5564,0.004 10.31511,1.65342 12.46678,2.10742 1.64351,0.34678 2.64003,0.68884 2.57512,0.88393 -0.0311,0.0934 -0.87169,0.25239 -1.89384,0.35827 -6.38268,0.66113 -7.67694,0.9183 -9.73691,1.93469 -3.59227,1.77244 -6.1564401,5.2543 -7.3544101,9.98652 -0.56606,2.23605 -0.95943,4.23369 -1.54797,7.86095 -0.29591,1.82375 -0.64837,3.87113 -0.78324,4.54973 -0.421,2.11825 -1.28442,7.07317 -2.00219,11.49 -0.37908,2.3327 -0.79712,4.8312 -0.92898,5.55221 -1.25555005,6.86538 -1.32746005,10.32791 -0.29564005,14.23492 0.31781005,1.20338 2.02430005,4.7254 2.95129005,6.09115 0.76729,1.13045 2.72103,3.604282 3.61852,4.581782 0.74386,0.81018 1.19882,1.31604 1.68293,1.87122 0.53274,0.61093 4.2658801,5.09011 4.8472001,5.81586 1.57721,1.96907 3.64039,3.50052 5.73893,4.25986 1.64456,0.59507 2.38982,0.65851 8.00223,0.68116 2.95472,0.0119 4.61425,0.074 4.61827,0.17284 0.006,0.14159 -0.52019,0.39687 -2.39682,1.1633 -0.38171,0.15589 -1.73506,0.73223 -3.00744,1.28074 -1.27239,0.54851 -2.72984,1.14715 -3.2388,1.33031 -0.50895,0.18316 -1.06417,0.42203 -1.23382,0.53081 -0.16965,0.10879 -0.56872,0.28311 -0.88681,0.38737 -0.3181,0.10427 -0.57836,0.2883 -0.57836,0.40896 0,0.27128 -0.0781,0.27976 0.92755,-0.10081 1.11461,-0.42181 1.83813,-0.65797 3.23661,-1.05646 0.63619,-0.18127 2.02425,-0.60285 3.08456,-0.93683 1.06032,-0.33399 2.55248,-0.79286 3.31591,-1.01972 0.76343,-0.22686 2.60903,-0.81104 4.10133,-1.29816 1.49231,-0.48713 2.93709,-0.93484 3.21063,-0.99492 0.27354,-0.0601 0.68188,-0.20497 0.90742,-0.32199 0.88233,-0.45775 0.69427,0.0809 -1.01108,2.89597 -3.27285,5.40261 -4.15935,7.10055 -3.59082,6.87759 0.0655,-0.0257 0.69579,-0.70602 1.40067,-1.51187 z M 21.830358,111.97704 c -3.475033,-0.84883 -5.074082,-2.91698 -7.31728,-5.72357 -0.70704,-0.89067 -1.4309,-1.76446 -1.60857,-1.94175 -0.17767,-0.1773 -0.67005,-0.72852 -1.09418,-1.22495 -1.205997,-1.37612 -2.2040841,-2.66758 -3.4051401,-4.004912 -2.87343,-3.08992 -4.63557,-6.21505 -5.40022,-9.57726 -0.33933,-1.49205 -0.39096,-5.28173 -0.0954,-7.00227 0.10929,-0.63619 0.71388,-4.24513 1.34353,-8.01986 1.18426,-7.09965 1.58271,-9.41933 2.0928,-12.18403 0.16434,-0.89066 0.54123,-3.07685 0.83756,-4.85818 0.29632,-1.78134 0.60489,-3.51641 0.68571,-3.85571 0.0808,-0.3393 0.26317,-1.24154 0.40521,-2.00496 0.92532,-4.97338 2.4835801,-8.07182 4.9964801,-9.93503 2.26296,-1.67788 3.39492,-2.05752 7.14035,-2.39479 1.37695,-0.12399 3.57928,-0.33098 4.89408,-0.45998 7.61664,-0.74727 9.60468,-0.88583 9.73608,-0.67857 0.0714,0.11261 0.130858,0.91612 0.132158,1.78558 0.002,1.53718 -0.007,1.58085 -0.344648,1.58115 -0.19086,1.7e-4 -2.4985,0.16936 -5.12809,0.37598 -2.62959,0.20662 -6.37733,0.45062 -8.32832,0.54223 -1.95098,0.0916 -3.90448,0.20413 -4.3411,0.25005 l -0.79385,0.0835 -0.58159,2.34286 c -0.31987,1.28858 -0.67401,2.56619 -0.78698,2.83915 -0.38714,0.9354 -0.31879,1.02941 1.06698,1.46747 0.69981,0.22122 1.6541,0.54259 2.12064,0.71417 1.23136,0.45285 3.07442,1.13886 5.01241,1.86568 1.634135,0.61687 3.252417,1.19727 4.88908,1.78544 0.53437,0.21996 1.2839,0.50303 1.66562,0.62904 0.38171,0.12601 0.83283,0.29191 1.00248,0.36867 0.64022,0.28966 2.18131,0.89234 2.74525,1.0736 l 0.58605,0.18836 -0.0889,2.02902 c -0.45431,10.36879 -0.56322,12.71134 -0.70023,15.0613 -0.28911,4.95881 -0.47079,7.63134 -0.54135,7.96357 -0.0877,0.41316 0.0273,0.39444 -6.01075,0.97783 -0.84825,0.082 -2.23631,0.22259 -3.08456,0.31251 -0.84826,0.0899 -2.99974,0.30253 -4.78108,0.47247 -1.78133,0.16994 -3.89811,0.37354 -4.70395,0.45245 -0.80585,0.0789 -1.58663,0.14593 -1.73507,0.14896 -0.14845,0.003 -0.2699,0.11512 -0.2699,0.2491 0,0.18263 0.10614,0.22324 0.42413,0.16228 0.23327,-0.0447 1.11815,-0.11998 1.96641,-0.16722 0.84825,-0.0472 3.24264,-0.18912 5.32087,-0.31528 3.74518,-0.22737 10.75386,-0.54029 12.10094,-0.54029 0.59617,0 0.69999,0.0455 0.69999,0.30713 0,0.16893 0.66782,1.95605 1.48405,3.97138 0.81622,2.01533 1.604718,3.97655 1.752218,4.35827 0.1475,0.38171 0.51442,1.28395 0.81538,2.00496 0.60903,1.45905 2.92756,7.618412 4.20899,11.181542 0.4576,1.27239 1.20794,3.31977 1.66743,4.54974 0.45949,1.22997 0.82539,2.24677 0.81311,2.25957 -0.0123,0.0128 -2.48611,0.0995 -5.49742,0.1926 -3.011298,0.0931 -6.446738,0.20329 -7.634288,0.24481 -4.97491,0.1739 -7.89409,0.20762 -8.33312,0.0962 z m 11.80325,-83.433772 c 0,-0.0734 -0.13311,-0.30265 -0.2958,-0.50948 -0.16269,-0.20683 -1.0196,-1.7951 -1.90423,-3.52949 -0.88463,-1.73439 -1.94424,-3.77806 -2.3547,-4.54149 -1.70602,-3.17313 -2.4175,-4.51827 -2.81436,-5.32087 -0.75329,-1.52345 -1.04378,-1.34851 -0.44965,0.27078 0.61008,1.66275 1.37794,4.66077 2.02065,7.88935 0.20601,1.03489 0.28903,1.19501 0.87965,1.69651 1.053089,0.96773 2.179474,1.81126 3.22193,2.79007 1.41028,1.33157 1.69651,1.54325 1.69651,1.25462 z"
       id="path1"
       sodipodi:nodetypes="csscsssscssssssssssscssssscsssscccccsssssssssscssssssssssssccccssssssssssssccccscsccsssssssssssssssssssssssssssssscssssssssssssssssssscsssssssssssssssssssssssssscssssssssscsccsscssscsssssssssssscsssccsssssssssssssssscsssssssssssssssccsssssssssssssssscsssscssssssssscssccsssssscsssssssssssssssssssssss" /></g></svg>
