<?xml version="1.0" encoding="UTF-8" standalone="no"?>
<!-- Created with Inkscape (http://www.inkscape.org/) -->

<svg
   width="210mm"
   height="297mm"
   viewBox="0 0 210 297"
   version="1.1"
   id="svg1"
   xml:space="preserve"
   inkscape:version="1.3.2 (091e20e, 2023-11-25, custom)"
   sodipodi:docname="fnaf.svg"
   xmlns:inkscape="http://www.inkscape.org/namespaces/inkscape"
   xmlns:sodipodi="http://sodipodi.sourceforge.net/DTD/sodipodi-0.dtd"
   xmlns="http://www.w3.org/2000/svg"
   xmlns:svg="http://www.w3.org/2000/svg"><sodipodi:namedview
     id="namedview1"
     pagecolor="#505050"
     bordercolor="#eeeeee"
     borderopacity="1"
     inkscape:showpageshadow="0"
     inkscape:pageopacity="0"
     inkscape:pagecheckerboard="0"
     inkscape:deskcolor="#505050"
     inkscape:document-units="mm"
     inkscape:zoom="1.0242632"
     inkscape:cx="440.31651"
     inkscape:cy="548.19894"
     inkscape:window-width="1920"
     inkscape:window-height="1009"
     inkscape:window-x="-8"
     inkscape:window-y="-8"
     inkscape:window-maximized="1"
     inkscape:current-layer="layer1" /><defs
     id="defs1" /><g
     inkscape:label="Calque 1"
     inkscape:groupmode="layer"
     id="layer1"><path
       style="fill:#000000"
       d="m 59.520551,124.56093 c -1.444552,-0.0725 -5.240945,-0.505 -6.964829,-0.7934 C 42.445673,122.0762 32.867515,117.96598 24.736141,111.82946 21.416708,109.32438 16.903092,105.04059 14.417802,102.03651 6.8743324,92.918394 2.1013094,82.183494 0.54364736,70.832444 0.09417136,67.557014 0.00184336,66.107084 2.8363073e-5,62.295474 -0.00187164,58.366384 0.09064836,56.994634 0.59152736,53.523014 3.7406834,31.695904 18.232895,13.26296 38.966594,4.7129939 48.481796,0.78920493 59.670471,-0.77834207 70.000411,0.36511893 94.498041,3.0768559 115.03214,19.410774 122.92985,42.468004 c 1.49711,4.37079 2.45599,8.82649 3.02525,14.05766 0.24182,2.22216 0.20211,10.00575 -0.0625,12.24613 -1.52947,12.95118 -6.39488,24.18393 -14.66346,33.853476 -9.4464,11.04694 -22.764859,18.58483 -37.225219,21.06847 -4.69731,0.80679 -9.70978,1.10691 -14.4834,0.86719 z m 9.71448,-3.20762 c 7.24768,-0.82327 13.43659,-2.57987 19.89848,-5.64782 9.08864,-4.31506 17.501799,-11.53065 23.282869,-19.968666 5.3573,-7.81951 8.77735,-16.9894 9.87366,-26.4735 0.26535,-2.29548 0.24037,-3.39008 -0.0856,-3.75023 -0.42165,-0.46592 -1.29122,-0.12693 -1.9305,0.75259 -0.54002,0.74296 -0.69599,1.19321 -0.88851,2.56499 -0.66471,4.7362 -1.20128,7.17853 -2.36704,10.77423 -5.51491,17.01036 -19.047829,30.456416 -36.302659,36.069646 -3.21834,1.04697 -6.18507,1.74506 -9.53785,2.2443 -3.01722,0.44928 -4.45435,0.54176 -8.41921,0.54176 -3.96486,0 -5.401992,-0.0925 -8.419214,-0.54176 -10.450471,-1.55612 -20.056939,-5.81714 -28.294227,-12.5501 -1.895111,-1.54901 -5.63538,-5.25773 -7.160683,-7.100276 -3.165872,-3.82433 -5.421639,-7.29547 -7.460911,-11.48074 -2.8318556,-5.81192 -4.3927726,-11.1602 -5.2941546,-18.13974 -0.105319,-0.8155 -0.277067,-1.5478 -0.460045,-1.96155 -0.504442,-1.14063 -1.649917,-2.01438 -2.2439,-1.71162 -0.205094,0.10455 -0.215914,0.2132 -0.141925,1.42519 0.990097,16.21829 8.9836136,31.60724 21.7824676,41.935146 9.647754,7.78515 21.143788,12.27905 33.865682,13.23837 2.34975,0.17719 7.83711,0.0599 10.30323,-0.22022 z m -1.97875,-4.48637 c 21.86268,-1.79761 40.427599,-16.04995 47.489729,-36.457976 0.89294,-2.58043 1.27096,-4.38038 0.98087,-4.67048 -0.21236,-0.21236 -0.56009,0.47855 -1.10966,2.20476 -3.17705,9.9793 -8.28804,17.89155 -15.837949,24.518496 -14.41975,12.65696 -34.88735,16.75135 -53.250738,10.65241 -13.524456,-4.4918 -24.64041,-13.995896 -30.965546,-26.475406 -1.641058,-3.23781 -2.447899,-5.24006 -3.496022,-8.67568 -0.604361,-1.98103 -0.884175,-2.5058 -0.884175,-1.65821 0,1.71722 1.392015,5.83053 3.348633,9.89498 6.069122,12.6073 16.834034,22.396696 30.0439,27.321336 4.666767,1.73976 9.223245,2.77882 14.414466,3.28704 1.962982,0.19218 7.236972,0.22561 9.266492,0.0587 z m -6.77006,-2.5889 c 0.45379,-0.48432 0.53558,-0.91319 0.7352,-3.85468 0.0979,-1.44259 0.23368,-2.72693 0.30173,-2.85408 0.13473,-0.25176 0.29341,-0.30077 1.34565,-0.41559 0.90856,-0.0992 1.18859,-0.21302 1.43004,-0.58152 0.18652,-0.28466 0.18604,-0.3162 -0.008,-0.5307 -0.11351,-0.12543 -0.37219,-0.28199 -0.57484,-0.34791 -0.85183,-0.27708 -5.832692,-0.80072 -6.359302,-0.66855 -0.3695,0.0927 -0.59473,0.63169 -0.43717,1.04611 0.14736,0.38757 0.50165,0.62108 1.21027,0.79767 0.991962,0.2472 0.984602,0.22102 0.937272,3.33568 -0.0228,1.49957 -0.003,3.03759 0.0449,3.41783 0.14463,1.15758 0.66945,1.40799 1.37429,0.65574 z m 5.48902,0.2891 c 0.14644,-0.10258 0.42774,-0.47263 0.62511,-0.82234 0.54158,-0.95963 0.92109,-1.22843 1.73438,-1.22843 0.76054,0 1.05354,0.15598 1.42646,0.75936 0.50491,0.81696 1.60469,1.16159 2.06913,0.64839 0.29043,-0.32092 0.2188,-0.57274 -1.11993,-3.93714 -1.24175,-3.12066 -2.04036,-4.73859 -2.42566,-4.91414 -0.41286,-0.18811 -1.10692,-0.003 -1.47741,0.39324 -0.46523,0.49802 -0.73723,1.30878 -1.53386,4.57192 -0.82339,3.37278 -0.95339,4.31765 -0.62687,4.5564 0.29488,0.21562 1.00261,0.20111 1.32865,-0.0273 z m 1.50193,-3.88433 c -0.11454,-0.11454 -0.18504,-0.39124 -0.18504,-0.7263 0,-0.80225 0.24135,-2.05012 0.38711,-2.00153 0.16934,0.0565 0.90816,1.80581 0.90816,2.15031 0,0.27916 -0.48993,0.76256 -0.77286,0.76256 -0.0838,0 -0.2356,-0.0833 -0.33737,-0.18504 z m -13.394997,2.44965 c 0.02504,-0.26 -0.11816,-0.72174 -0.441567,-1.42381 -0.714015,-1.55004 -0.69437,-1.61983 0.671136,-2.38442 0.734913,-0.4115 1.260708,-1.0907 1.511084,-1.95196 0.164522,-0.56592 0.164212,-0.68656 -0.0032,-1.26257 -0.341194,-1.17367 -1.55199,-1.961 -3.893987,-2.5321 -0.518105,-0.12634 -1.181324,-0.26399 -1.473819,-0.30589 l -0.531809,-0.0762 -0.796045,3.04134 c -1.088332,4.15804 -1.365925,5.89172 -1.001691,6.25595 0.231453,0.23145 0.758973,0.16121 1.129258,-0.15036 0.415469,-0.34959 0.775359,-1.14768 0.972272,-2.15609 0.07951,-0.4072 0.1925,-0.72439 0.251082,-0.70486 0.05858,0.0195 0.280881,0.46796 0.494,0.99652 0.500204,1.24058 1.078138,2.19256 1.641253,2.70351 0.385255,0.34957 0.51899,0.40232 0.94201,0.37156 0.462029,-0.0336 0.49534,-0.06 0.530066,-0.42064 z m -2.433349,-5.24084 c -0.499804,-0.15982 -0.658545,-0.50439 -0.553891,-1.20227 0.118713,-0.79163 0.576549,-1.26851 1.209472,-1.25978 1.134574,0.0157 1.847635,0.77028 1.578064,1.67002 -0.257508,0.85949 -1.094534,1.15629 -2.233645,0.79203 z m 24.036466,5.22341 c 0.44272,-0.16832 0.60128,-0.70737 0.51568,-1.75318 -0.0408,-0.49837 -0.14852,-1.17107 -0.2394,-1.49488 -0.0909,-0.32382 -0.40609,-1.46695 -0.70046,-2.54028 -0.29437,-1.07334 -0.66824,-2.25233 -0.83083,-2.61997 -0.27536,-0.62264 -0.32289,-0.66844 -0.6937,-0.66844 -1.02991,0 -1.26284,1.15263 -0.74726,3.69768 0.62686,3.09437 1.31463,4.96814 1.95052,5.31403 0.36478,0.19842 0.38906,0.20054 0.74545,0.065 z m 4.79891,-1.39348 c 0.22435,-0.28321 0.2498,-0.43071 0.20294,-1.17618 -0.0456,-0.72623 -0.14333,-1.03697 -0.66011,-2.09986 -0.33359,-0.68612 -0.60652,-1.29609 -0.60652,-1.35547 0,-0.24554 0.31629,-0.0654 1.222,0.69606 2.63216,2.21284 3.78172,2.78535 4.42461,2.20355 0.36246,-0.32802 0.30591,-1.00077 -0.21368,-2.5421 -1.01023,-2.99682 -2.09922,-5.37491 -2.71756,-5.9345 -0.30086,-0.27227 -0.65063,-0.14834 -0.83456,0.2957 -0.29198,0.70491 0.0219,2.11159 1.00336,4.49624 0.18859,0.45823 -0.25608,0.14821 -1.60445,-1.11863 -1.72234,-1.6182 -2.42876,-2.09009 -3.12885,-2.09009 -0.94356,0 -1.24816,0.7696 -0.83888,2.11952 0.35804,1.1809 1.81323,5.20061 2.06745,5.71094 0.57914,1.1626 1.17146,1.44213 1.68425,0.79482 z m -35.588352,-1.2305 c 0.07772,-0.0777 0.141302,-0.3121 0.141302,-0.52085 0,-0.5029 -0.459305,-1.03554 -1.222289,-1.41746 -1.269584,-0.63549 -1.827262,-1.27715 -1.608979,-1.85128 0.265441,-0.69816 1.010281,-0.68368 2.606568,0.0507 1.362121,0.62664 1.626794,0.60696 1.812961,-0.13478 0.102261,-0.40745 -0.302022,-0.87966 -1.349017,-1.57571 -1.450873,-0.96453 -1.851428,-1.66841 -1.167248,-2.05114 0.284898,-0.15938 0.405967,-0.13947 1.589642,0.26143 1.227947,0.4159 1.960869,0.52853 2.231856,0.34297 0.510217,-0.34937 0.03906,-1.0196 -1.30615,-1.85803 -0.78629,-0.49008 -3.45945,-1.753296 -3.539925,-1.67283 -0.05549,0.0555 -1.676525,3.68034 -2.409184,5.38725 -0.375278,0.8743 -0.818457,1.89434 -0.984842,2.26675 l -0.302518,0.67711 1.91199,0.95789 c 1.051595,0.52684 2.097449,1.02647 2.32412,1.1103 0.528967,0.19561 1.091543,0.20787 1.271713,0.0277 z m 45.019542,-2.7617 c 0.4502,-0.54246 0.0539,-1.69179 -1.30547,-3.78608 -0.61446,-0.94666 -0.86802,-1.55351 -0.6491,-1.55351 0.0342,0 0.45304,0.18546 0.93071,0.41213 1.4569,0.69137 1.6268,0.5823 1.59627,-1.02468 -0.0266,-1.39783 -0.0275,-1.38922 0.15742,-1.38922 0.25531,0 0.58929,0.43809 1.70786,2.24022 1.25062,2.01487 1.42643,2.20634 1.87821,2.04556 0.30036,-0.10689 0.32011,-0.15758 0.318,-0.81629 -0.002,-0.58144 -0.0863,-0.87462 -0.49056,-1.70322 -0.72689,-1.4899 -3.31302,-5.048096 -3.99268,-5.493426 -0.23636,-0.15487 -0.3503,-0.16596 -0.58876,-0.0573 -0.43353,0.19754 -0.61035,0.75279 -0.72803,2.28626 -0.14248,1.856446 -0.32246,2.039466 -1.35911,1.382036 -1.47809,-0.937376 -2.00698,-1.036796 -2.56214,-0.481626 -0.56206,0.562056 -0.48572,0.868336 0.73366,2.943586 1.32253,2.25078 2.51796,4.02592 3.15829,4.68986 0.51719,0.53627 0.91884,0.63898 1.19543,0.30572 z m -54.593898,-2.99604 c 0.28789,-0.26537 0.93296,-1.02045 1.433489,-1.67796 1.563505,-2.05386 2.271077,-2.88515 2.524111,-2.96546 0.166405,-0.0528 0.431097,0.0385 0.82987,0.28643 0.723903,0.45001 1.022537,0.52917 1.422526,0.37709 0.469058,-0.17833 0.608721,-0.52204 0.386638,-0.951496 -0.424124,-0.82016 -4.703966,-4.00621 -5.381575,-4.00621 -0.346999,0 -0.683996,0.42966 -0.683996,0.87209 0,0.32135 0.117037,0.52251 0.588756,1.01193 0.899758,0.93351 0.867427,1.11184 -0.591715,3.263606 -0.64926,0.95744 -1.36966,1.99265 -1.600889,2.30044 -0.513936,0.68412 -0.65094,1.39188 -0.336656,1.73916 0.343376,0.37943 0.81824,0.29533 1.409441,-0.24962 z m 30.982098,-1.63805 c 8.2637,-0.64635 15.62674,-3.507776 22.30151,-8.666826 1.62948,-1.25945 5.0136,-4.59486 6.33226,-6.24111 2.71133,-3.38489 4.90532,-7.21926 6.371129,-11.13464 0.58972,-1.57523 1.32414,-3.96384 1.48909,-4.8431 0.0455,-0.24283 0.16939,-0.48734 0.27519,-0.54334 0.1058,-0.056 1.51706,-0.12682 3.13614,-0.15737 2.32547,-0.0439 3.07521,-0.0974 3.56952,-0.25504 0.72102,-0.22987 0.73995,-0.40251 0.0718,-0.65448 -0.60435,-0.22789 -5.59676,-0.24315 -6.40843,-0.0196 -1.32067,0.36375 -1.28942,0.31739 -2.04439,3.03261 -2.426119,8.72547 -8.094869,16.60184 -15.618299,21.70064 -5.4697,3.70694 -11.06239,5.801096 -17.83931,6.679846 -1.92421,0.24951 -6.70835,0.28318 -8.65471,0.0609 -12.141682,-1.38654 -22.600407,-7.784456 -29.120503,-17.813876 -2.0443,-3.14461 -3.491116,-6.26047 -4.612643,-9.93379 -0.58661,-1.92131 -0.750594,-2.27848 -1.29993,-2.8313 -0.762072,-0.76692 -1.391829,-0.90234 -4.488331,-0.96511 -2.664565,-0.054 -3.771253,0.0499 -4.045101,0.37988 -0.36516,0.43999 1.214463,0.68669 4.473101,0.69858 3.007896,0.011 3.225887,0.0633 3.563271,0.85525 0.105365,0.24733 0.407633,1.18297 0.671707,2.07922 1.422416,4.82755 3.911337,9.54257 7.213197,13.6647 1.318435,1.64597 4.702549,4.98145 6.332259,6.24126 8.28508,6.404586 18.256061,9.454726 28.331513,8.666676 z m 33.19014,-3.07445 c 1.813699,-1.760896 2.094929,-2.141996 2.041899,-2.767046 -0.0703,-0.829 -0.65759,-0.83191 -1.582769,-0.008 -0.31544,0.28096 -0.78453,0.65247 -1.04242,0.82558 -0.82296,0.5524 -1.7095,0.33575 -1.7095,-0.41776 0,-0.49045 0.16512,-0.75189 1.0679,-1.69078 0.44086,-0.4585 0.83806,-0.97904 0.88266,-1.15676 0.18395,-0.73291 -0.43773,-1.18242 -1.16077,-0.83932 -0.20828,0.0988 -0.71409,0.47222 -1.12404,0.82975 -1.14537,0.99891 -1.6194,1.1857 -2.04094,0.80421 -0.45166,-0.40875 -0.22919,-1.02191 0.79085,-2.17966 0.78822,-0.89463 1.0219,-1.30669 0.97321,-1.71606 -0.0256,-0.21506 -0.13487,-0.33948 -0.36519,-0.41574 -0.59864,-0.19822 -1.42498,0.33864 -3.0736,1.99685 l -1.47652,1.48512 0.92314,0.97523 c 0.50773,0.53638 1.49509,1.65442 2.19414,2.48452 1.42883,1.6967 2.89545,3.308276 3.02499,3.323996 0.0473,0.006 0.8019,-0.68469 1.67696,-1.53427 z m -30.72971,0.96258 c 6.49097,-0.996466 12.26377,-3.338566 17.33923,-7.034726 1.68724,-1.22873 2.51689,-1.93602 4.2499,-3.62313 4.42923,-4.31192 7.55885,-9.31098 9.58617,-15.31233 0.699849,-2.07174 0.725599,-2.46457 0.265359,-4.0484 -0.222979,-0.76733 -0.299129,-1.23965 -0.249709,-1.54874 0.143869,-0.89966 1.833869,-4.42981 3.028469,-6.32599 0.3816,-0.60571 0.69382,-1.15048 0.69382,-1.2106 0,-0.0601 -0.19063,-0.4073 -0.42362,-0.77152 -0.74255,-1.1608 -2.38479,-4.66294 -2.69327,-5.74353 -0.22765,-0.79744 -0.2979,-1.31623 -0.2979,-2.20011 0,-1.05163 -0.0441,-1.28289 -0.485449,-2.54792 -1.41811,-4.06429 -3.58048,-7.97775 -6.29911,-11.40015 -1.25023,-1.57387 -4.2882,-4.62704 -5.81482,-5.8439 -10.17376,-8.10948 -23.371,-10.64928 -35.729755,-6.87618 -8.996464,2.7466 -16.788134,8.81918 -21.667755,16.88716 -2.065554,3.41519 -4.123649,8.54346 -4.244606,10.57651 -0.02796,0.46994 -0.1862,1.25316 -0.354451,1.75437 -0.343401,1.02298 -1.747255,3.8514 -2.642178,5.32335 -0.327486,0.53864 -0.595429,1.00572 -0.595429,1.03795 0,0.0322 0.362984,0.67778 0.806631,1.43455 1.289251,2.19921 1.849543,3.29939 2.302243,4.52065 0.464895,1.25417 0.530764,1.96422 0.245541,2.64685 -0.168938,0.40433 -0.157145,0.50582 0.228708,1.96855 2.666978,10.11021 9.100603,18.46385 18.259728,23.70907 3.760111,2.15333 8.336162,3.755796 12.854351,4.501406 2.435672,0.40195 3.332022,0.45739 6.751232,0.41759 2.57979,-0.03 3.57333,-0.0891 4.88667,-0.29078 z m -2.70828,-3.660996 c -2.61897,-0.22854 -3.73043,-0.51341 -6.17562,-1.58281 -4.001238,-1.74993 -5.771983,-3.36074 -7.513453,-6.83482 -1.07257,-2.13968 -1.660947,-3.72403 -2.207396,-5.94395 -0.535961,-2.17731 -0.59334,-2.30359 -1.169816,-2.57457 -0.280511,-0.13185 -1.056722,-0.34933 -1.724913,-0.48328 -1.888093,-0.37851 -2.752938,-0.85823 -4.146177,-2.29983 -1.207362,-1.24927 -1.737076,-2.37345 -1.985224,-4.21313 -0.189471,-1.40468 0.02757,-2.8935 0.737755,-5.0607 0.917204,-2.79895 1.070344,-3.55888 1.089189,-5.40492 0.009,-0.8846 -0.01957,-1.64475 -0.06355,-1.68923 -0.04398,-0.0445 -0.865295,0.0688 -1.825144,0.25175 -1.439248,0.27431 -2.06513,0.33305 -3.570324,0.33509 -1.619793,0.002 -1.898011,-0.0271 -2.472776,-0.2603 -2.271431,-0.92165 -4.5422,-3.49046 -5.492627,-6.21354 -0.293642,-0.84132 -0.329141,-1.10563 -0.332107,-2.47277 -0.0037,-1.72173 0.177489,-2.41459 0.922756,-3.52793 0.880282,-1.31503 3.334285,-3.42383 4.784227,-4.11123 0.675089,-0.32006 0.914246,-0.36816 2.027236,-0.40772 2.389051,-0.0849 5.070409,0.40353 6.688672,1.21847 0.603329,0.30384 1.180843,0.73762 1.888989,1.41886 1.095378,1.05377 1.434374,1.22272 1.956364,0.97502 0.529599,-0.2513 0.816359,-0.97129 0.913405,-2.29336 0.105853,-1.44205 0.258795,-1.80994 1.119249,-2.69221 0.794907,-0.81507 1.003725,-1.18246 1.159639,-2.04028 0.157845,-0.86845 0.03505,-1.33927 -1.121268,-4.29927 l -1.00456,-2.57151 0.751653,-0.76448 c 2.963417,-3.014 7.025044,-4.6373 11.581671,-4.62882 1.76177,0.003 4.67973,0.29707 5.09781,0.51327 1.29984,0.67217 2.03629,2.53916 2.37915,6.03145 0.25945,2.64267 0.38739,2.90378 1.73643,3.54412 1.09777,0.52107 1.6052,1.01042 2.33862,2.2553 0.3187,0.54096 0.8179,1.23195 1.10934,1.53554 0.60065,0.62569 1.63401,1.19006 2.179,1.19006 0.4815,0 1.42015,-0.57489 2.85745,-1.7501 1.60901,-1.3156 2.29591,-1.70435 3.45339,-1.95444 2.10664,-0.45517 5.01902,0.26361 7.10796,1.75424 1.73736,1.23976 2.87908,3.30144 3.06889,5.54171 0.10204,1.20436 -0.0678,2.13002 -0.58347,3.18017 -0.97017,1.97572 -2.87282,3.41811 -6.06848,4.6005 -1.10201,0.40774 -1.46524,0.74021 -1.35534,1.24057 0.0435,0.19798 0.14822,0.75823 0.23275,1.24499 0.21331,1.22841 0.60475,1.74771 3.17374,4.21044 1.81756,1.74238 2.19511,2.16429 2.45508,2.74358 0.41375,0.92198 0.58564,2.14411 0.53262,3.78696 -0.0427,1.32187 -0.0587,1.39303 -0.50096,2.22588 -0.65302,1.22969 -1.65072,2.11064 -3.49214,3.0835 -1.40764,0.74369 -1.46065,0.78542 -1.42575,1.12255 0.0199,0.19259 0.77905,1.66414 1.68692,3.27013 2.29195,4.05434 2.57475,4.76458 2.57475,6.46631 0,1.66734 -0.55271,2.73954 -2.33124,4.52239 -3.13701,3.14461 -7.73632,5.54562 -13.5063,7.05077 -2.62322,0.68429 -5.3101,0.95582 -7.53608,0.76158 z m 3.41479,-0.94219 c 1.77554,-0.20117 3.60451,-0.88218 4.14784,-1.54443 0.12378,-0.15087 0.0191,-0.2054 -0.73594,-0.38341 -0.56025,-0.13208 -0.88025,-0.26555 -0.88025,-0.36715 0,-0.2234 0.0397,-0.24033 1.64488,-0.70237 1.95803,-0.56358 2.60489,-0.83147 5.58206,-2.31175 1.41667,-0.70439 2.64864,-1.28071 2.73772,-1.28071 0.38744,0 0.0938,0.34416 -0.80549,0.94418 -0.53209,0.35501 -1.28717,0.96414 -1.67795,1.35362 -0.57997,0.57804 -1.05882,0.88698 -2.60609,1.68133 -2.23874,1.14936 -2.41704,1.267 -2.16783,1.43029 0.22848,0.14971 0.4656,0.0927 2.29713,-0.55203 2.10756,-0.74194 2.9981,-1.16235 5.18105,-2.44588 2.27974,-1.34044 3.54748,-2.33484 4.78649,-3.75444 1.06277,-1.21766 1.44542,-1.81504 1.64814,-2.57298 0.28384,-1.06127 -0.39584,-2.79431 -2.55123,-6.50507 -0.6395,-1.10097 -1.51811,-2.65214 -1.95246,-3.44703 l -0.78973,-1.44527 0.31253,-0.16078 c 0.17189,-0.0884 0.70994,-0.27783 1.19566,-0.4209 3.3031,-0.97292 5.14333,-3.34945 4.90803,-6.33837 -0.14305,-1.81711 -0.87355,-3.14186 -2.31663,-4.20118 -1.19611,-0.87802 -3.84487,-1.71128 -5.48452,-1.72535 -1.16418,-0.01 -1.66947,0.21822 -3.04195,1.37383 -0.51186,0.43098 -1.13447,0.91848 -1.38358,1.08333 -0.54485,0.36057 -0.5442,0.35189 -0.198,2.64347 0.33627,2.22582 0.37888,5.1946 0.0754,5.2543 -0.24415,0.048 -0.29179,-0.13086 -0.79322,-2.97816 -0.20529,-1.16573 -0.48032,-2.34272 -0.61118,-2.61552 -0.42111,-0.87793 -1.30576,-1.20288 -3.93036,-1.44368 -2.43093,-0.22304 -2.86573,-0.3521 -4.18017,-1.24082 -0.62664,-0.42368 -0.67329,-0.43575 -1.4393,-0.37263 -1.18296,0.0975 -6.65285,2.05077 -8.745912,3.12315 -2.438024,1.24912 -3.799739,3.60336 -3.541595,6.12299 0.145488,1.42004 0.669231,2.192 3.118275,4.59609 l 1.365062,1.34 4.49814,-0.0712 c 5.54786,-0.0878 7.10582,-0.28288 10.98614,-1.37564 3.48614,-0.98175 8.06535,-2.04923 8.264,-1.92646 0.0599,0.037 0.23608,0.35491 0.39154,0.70644 0.15547,0.35152 0.63836,1.03187 1.07311,1.51189 1.34634,1.48653 1.82704,2.40076 2.06876,3.93455 0.21679,1.37567 -0.0819,2.22596 -0.98148,2.79383 -0.50443,0.31843 -6.05864,2.58017 -8.63753,3.5173 -1.78893,0.65007 -5.62798,1.73771 -7.2417,2.05165 -5.07761,0.98782 -6.72533,0.85707 -9.47662,-0.752 -1.473542,-0.86178 -1.576492,-1.00299 -4.421394,-6.06419 -1.561201,-2.77744 -2.321789,-3.88579 -2.666559,-3.88579 -0.11187,0 -0.155286,0.19185 -0.153223,0.67707 0.0039,0.91592 0.138821,1.44265 0.823037,3.21301 0.877497,2.27046 1.027398,3.00052 0.531602,2.58904 -0.4336,-0.35985 -1.645452,-2.99158 -2.680788,-5.82175 -0.383148,-1.04737 -0.598418,-1.32957 -0.704568,-0.92366 -0.08045,0.30763 0.336509,2.9836 0.625189,4.0124 0.851156,3.03333 2.076273,6.00498 3.112246,7.54908 1.380442,2.05751 4.156546,3.98308 7.165418,4.97009 3.24206,1.06351 5.85527,1.42985 8.25779,1.15765 z m 16.19079,-24.32973 c -0.92349,-0.14167 -1.05909,-0.18171 -1.05232,-0.3108 0.009,-0.1735 1.98893,-1.49599 2.23957,-1.49599 0.27115,0 1.28553,0.67862 1.28553,0.86002 0,0.30406 -0.57911,0.69943 -1.25866,0.85933 -0.37633,0.0885 -0.73723,0.1546 -0.80199,0.1468 -0.0648,-0.008 -0.25022,-0.0345 -0.41213,-0.0594 z m -19.60558,16.90149 c 0.25906,-0.0718 0.93004,-0.33721 1.49107,-0.58973 0.98057,-0.44135 2.30925,-0.82452 4.24882,-1.22527 0.50165,-0.10365 0.99759,-0.27396 1.10211,-0.37848 0.44099,-0.44099 -0.17514,-2.05251 -0.84944,-2.22175 -0.31812,-0.0798 -0.38182,-0.0633 -2.06435,0.53668 -0.64544,0.23015 -1.62467,0.44724 -2.67865,0.59385 -2.02049,0.28105 -2.49088,0.5013 -2.94223,1.37767 -0.20381,0.39572 -0.16874,1.6326 0.0526,1.85391 0.2178,0.2178 0.95954,0.24183 1.6401,0.0531 z m -2.9495,-0.85022 c 0.55578,-0.4064 -0.25596,-2.57543 -1.55176,-4.14638 -0.92281,-1.11877 -1.52305,-1.36173 -2.03028,-0.82181 -0.76661,0.81602 0.38198,3.13282 2.27723,4.59337 0.73239,0.56441 0.95721,0.62899 1.30481,0.37482 z m 16.22006,-2.83271 c 2.96931,-1.1915 3.84158,-1.78014 4.33399,-2.92479 0.33862,-0.78713 0.27826,-1.80019 -0.14247,-2.39152 -0.34488,-0.4847 -1.09911,-1.09505 -1.46745,-1.1875 -0.67968,-0.17059 -1.21685,0.35179 -1.21685,1.18336 0,0.7198 -0.27191,1.52109 -0.6631,1.95409 -0.50709,0.56129 -1.02576,0.80805 -2.02288,0.96239 -0.88508,0.13699 -1.33971,0.33248 -1.82851,0.78627 -0.42774,0.39708 -0.66656,0.85674 -0.66656,1.2829 0,0.64786 0.46325,0.96157 1.42766,0.96678 0.53226,0.003 0.97319,-0.12118 2.24617,-0.63198 z m -33.188242,-7.0477 c -0.955869,-0.98852 -2.392283,-3.07524 -2.229159,-3.23836 0.03058,-0.0306 0.44621,0.0793 0.923621,0.24415 0.477411,0.16487 1.765271,0.46697 2.861911,0.67135 2.149801,0.40065 5.123779,1.035 6.497876,1.386 0.469533,0.11993 0.853696,0.19726 0.853696,0.17183 0,-0.0254 -0.160123,-0.27897 -0.355828,-0.56342 -0.610534,-0.88738 -1.522952,-2.90293 -1.704055,-3.76429 -0.466752,-2.21998 0.147968,-4.32227 1.745622,-5.96989 1.057783,-1.09087 2.144486,-1.63794 5.468908,-2.75319 2.19429,-0.73611 3.67634,-1.39113 4.25277,-1.87957 0.99414,-0.84239 1.13068,-2.486 0.28056,-3.37716 -1.16333,-1.21949 -5.1211,-0.79907 -7.488912,0.79551 -0.32471,0.21867 -0.6344,0.37037 -0.68821,0.33711 -0.16236,-0.10035 -0.10303,-0.89252 0.11373,-1.51846 0.27009,-0.77993 1.32736,-2.29282 2.074072,-2.96786 0.77051,-0.69655 1.87738,-1.21767 2.7484,-1.29396 1.45682,-0.12759 3.23874,0.57439 4.36707,1.72038 0.87926,0.89301 1.4103,1.88717 1.50816,2.82337 0.0842,0.8057 0.24385,1.01015 0.71758,0.91897 0.1787,-0.0344 0.80179,-0.15032 1.38466,-0.25762 0.60253,-0.11093 1.14738,-0.28042 1.26284,-0.39285 0.13285,-0.12936 0.28381,-0.66994 0.4365,-1.56306 0.12837,-0.75092 0.34129,-1.65159 0.47314,-2.00149 0.57711,-1.53142 1.79221,-2.49315 3.16425,-2.50444 1.87802,-0.0155 4.43166,1.48973 5.16272,3.04307 0.2599,0.55225 0.27334,0.68143 0.2026,1.94806 -0.0754,1.3503 -0.0743,1.35834 0.24128,1.73339 0.41408,0.49211 0.91259,0.61773 2.45457,0.61853 1.06072,5.4e-4 1.28153,-0.0306 1.34254,-0.18963 0.0983,-0.25624 -0.13423,-1.48721 -0.56342,-2.98236 -0.32995,-1.14942 -2.44972,-6.59733 -2.94448,-7.56747 -0.25283,-0.49575 -0.26664,-0.56401 -0.11417,-0.56401 0.0597,0 0.47337,0.7021 0.91916,1.56021 1.17056,2.25321 1.57493,2.84256 2.2029,3.21057 2.05571,1.20473 5.83675,-0.53524 7.21098,-3.31837 0.44882,-0.90896 0.45029,-0.91669 0.44184,-2.33027 -0.014,-2.34258 -0.44838,-3.55366 -1.731,-4.82615 -1.60299,-1.59032 -3.95518,-2.49702 -6.20873,-2.39327 -1.35062,0.0622 -2.21691,0.34768 -3.30434,1.08901 -0.97508,0.66474 -2.65161,2.1175 -2.7552,2.38746 -0.0553,0.14412 0.0405,0.30908 0.32406,0.55812 0.22142,0.19444 0.75694,0.66353 1.19004,1.04242 0.94497,0.82669 1.22476,1.207 1.03073,1.40103 -0.10142,0.10142 -0.21546,0.0713 -0.45907,-0.12122 -2.06612,-1.6328 -5.30279,-3.18505 -7.80134,-3.74139 -2.2411,-0.49901 -4.99182,-0.66053 -6.88845,-0.40447 -0.45334,0.0612 -1.67207,0.21845 -2.70828,0.34943 -1.94983,0.24648 -3.28346,0.52527 -5.577302,1.1659 -4.190503,1.17035 -6.954945,2.69817 -8.536736,4.718 -0.95225,1.21596 -1.217082,1.93926 -0.945101,2.58125 0.452897,1.06901 0.422564,3.0682 -0.08689,5.72646 -0.389023,2.02988 -1.635035,5.47543 -1.980077,5.47543 -0.168212,0 -0.160538,-0.11876 0.109879,-1.70053 0.128882,-0.75388 0.315244,-2.75043 0.414138,-4.43679 0.09889,-1.68636 0.231054,-3.68448 0.293687,-4.44027 0.260262,-3.14054 0.141367,-3.84532 -0.825685,-4.89445 -0.927643,-1.00637 -2.390562,-1.61153 -4.748809,-1.9644 -2.656466,-0.3975 -4.346334,-0.23346 -5.906395,0.57338 -1.212756,0.62721 -3.442228,2.86242 -3.973049,3.98327 -0.367082,0.77511 -0.383264,0.86909 -0.372659,2.16443 0.0098,1.19671 0.05505,1.48419 0.389282,2.47278 1.051751,3.11089 3.053035,5.08787 5.772217,5.70213 1.038208,0.23452 3.267012,0.2778 3.653535,0.0709 0.143978,-0.0771 0.239545,-0.16233 0.212372,-0.1895 -0.02717,-0.0272 -0.601334,-0.14961 -1.275911,-0.27207 -2.46649,-0.44778 -4.412098,-1.35135 -4.886936,-2.26959 -0.33594,-0.64964 -0.05271,-0.66556 1.154462,-0.0649 1.765819,0.87864 3.533062,1.21751 5.778339,1.108 2.369894,-0.11559 3.306398,-0.52126 3.777496,-1.63631 0.161169,-0.38148 0.30219,-0.55979 0.422885,-0.53472 0.31189,0.0648 0.187766,0.96588 -0.220743,1.60248 -0.496564,0.77383 -0.682284,1.65746 -0.820081,3.90185 -0.137474,2.23913 -0.438947,3.60246 -1.288896,5.82869 -0.52826,1.38364 -0.540394,1.44606 -0.583739,3.00265 -0.08954,3.21556 0.693599,4.99436 2.888341,6.56049 0.646739,0.46151 2.101956,1.31743 2.254711,1.32617 0.02571,10e-4 -0.427207,-0.48746 -1.006481,-1.08652 z m 14.088242,-15.38824 c -1.07938,-0.32834 -1.61216,-1.08136 -1.49576,-2.11409 0.0762,-0.67573 0.46917,-1.03386 1.55527,-1.41729 0.65016,-0.22952 0.82126,-0.24987 1.1067,-0.13164 0.70364,0.29146 1.42508,1.36304 1.42508,2.11672 0,0.67514 -0.1428,0.89186 -0.85783,1.30193 -0.61803,0.35445 -1.13295,0.42704 -1.73346,0.24437 z m 1.52306,-0.70821 c 0.40193,-0.28621 0.66957,-0.99702 0.5519,-1.46582 -0.0499,-0.19896 -0.24482,-0.38964 -0.56538,-0.55318 -0.41962,-0.21408 -0.551,-0.23104 -0.92395,-0.1193 -0.56833,0.17027 -1.03114,0.64426 -1.12676,1.15398 -0.20432,1.08913 1.06616,1.69497 2.06419,0.98432 z m -1.38892,-0.841 c -0.49653,-0.46259 -0.0587,-1.0232 0.50869,-0.6514 0.38835,0.25446 0.4877,0.49475 0.29869,0.72248 -0.2027,0.24425 -0.49669,0.21837 -0.80738,-0.0711 z m -20.857597,-3.01224 c -1.818723,-0.18305 -2.896651,-0.54316 -3.640831,-1.21633 -0.433514,-0.39215 -0.603168,-0.47077 -1.015905,-0.47077 -0.559095,0 -0.693028,-0.11742 -0.804908,-0.70569 -0.05347,-0.28115 -0.235713,-0.54715 -0.575887,-0.84054 l -0.497662,-0.42924 0.01502,-1.99289 c 0.01745,-2.31469 0.06887,-2.47853 1.011909,-3.22396 1.755024,-1.38726 3.78981,-1.91421 6.341655,-1.64228 2.230864,0.23772 3.454804,0.81048 4.0512,1.89583 0.322646,0.58717 0.354738,0.75148 0.395099,2.02283 0.103483,3.25971 -0.634598,6.20002 -1.644729,6.55216 -0.341166,0.11893 -2.639238,0.1511 -3.634962,0.0509 z m 16.43878,-2.88823 c -0.254204,-0.14226 -1.246695,-1.67774 -1.376105,-2.12896 -0.224937,-0.78431 0.597047,-1.36549 2.3645,-1.67183 1.436422,-0.24896 2.128422,-0.31074 4.180172,-0.37322 2.79804,-0.0852 3.35591,0.004 3.35591,0.53818 0,0.54879 -0.73951,1.12174 -1.74221,1.3498 -1.07535,0.24458 -3.25913,1.01395 -4.771562,1.68106 -1.52986,0.6748 -1.76142,0.74447 -2.010705,0.60497 z m 28.130057,-2.98961 c -1.5167,-0.8291 -3.36261,-3.99003 -3.35332,-5.7422 0.003,-0.56766 0.29543,-1.26826 0.75814,-1.81641 1.56724,-1.85663 5.46185,-2.27511 7.52462,-0.80853 1.59404,1.13332 1.6754,2.46047 0.30642,4.99847 -1.20832,2.24015 -2.60076,3.41334 -4.17263,3.51559 -0.50701,0.033 -0.81096,-0.009 -1.06323,-0.14692 z m -5.94644,-0.0675 c -0.48572,-0.0444 -1.8899,-0.13602 -3.1204,-0.20362 -1.2305,-0.0676 -2.44275,-0.18195 -2.69388,-0.25412 -1.12363,-0.3229 -1.356,-1.26977 -0.47591,-1.93923 1.07648,-0.81884 3.99474,-1.41015 6.2741,-1.27128 1.11051,0.0676 1.23115,0.0537 1.54604,-0.17914 0.18785,-0.13888 0.36575,-0.21327 0.39534,-0.16531 0.0811,0.13144 -0.15253,3.08611 -0.28281,3.57709 -0.13499,0.50869 -0.31642,0.55681 -1.64248,0.43561 z m 2.24502,26.62681 c 0.30697,-0.16429 0.28664,-0.41869 -0.0613,-0.76659 -0.32785,-0.32785 -0.78542,-0.37527 -1.0517,-0.10899 -0.21255,0.21255 -0.13445,0.5063 0.20973,0.78879 0.2844,0.23344 0.57674,0.26153 0.90324,0.0868 z m -4.79441,-18.59933 c 0.15147,-0.14428 -0.0265,-0.57498 -0.31603,-0.76467 -0.22615,-0.14818 -0.34886,-0.14131 -1.02139,0.0572 -0.4204,0.12406 -0.99299,0.28371 -1.27242,0.35477 -0.61644,0.15677 -0.59523,0.38033 0.0463,0.4877 0.5646,0.0945 2.42554,-0.003 2.56358,-0.13495 z m -2.3873,-2.12548 c 0.20691,-0.11074 0.32688,-0.0664 0.78368,0.28946 0.41513,0.32343 0.57583,0.38995 0.69767,0.28883 0.24051,-0.19961 0.1928,-0.40833 -0.19409,-0.84896 -0.39179,-0.44623 -1.22702,-0.85087 -2.0148,-0.9761 -0.48131,-0.0765 -0.50589,-0.068 -0.34965,0.12137 0.0924,0.11201 0.32878,0.28678 0.52524,0.38837 l 0.3572,0.18471 -0.43694,0.36684 c -0.33495,0.28122 -0.43694,0.45392 -0.43693,0.73991 1e-5,0.75411 0.12665,0.79787 0.48635,0.16805 0.18588,-0.32545 0.4479,-0.65057 0.58227,-0.72248 z m 4.18353,1.134 c 0.22308,-0.58136 -2.03892,-2.66799 -2.73154,-2.51976 -0.22938,0.0491 1.28724,2.05983 1.82416,2.41849 0.45551,0.30428 0.81412,0.3443 0.90738,0.10127 z m 0.89108,-0.97089 c 0.36901,-0.33394 0.26261,-0.6828 -0.38615,-1.2661 -0.33082,-0.29743 -0.64875,-0.54079 -0.70651,-0.54079 -0.31353,0 0.0537,1.24959 0.50989,1.73522 0.29924,0.31853 0.30871,0.3197 0.58277,0.0717 z m -15.86108,-0.78898 c 0.36283,-0.2653 0.13686,-0.51464 -0.60732,-0.67011 -1.8284,-0.38199 -3.624782,0.10711 -2.50041,0.68079 0.40715,0.20773 2.82037,0.19945 3.10773,-0.0107 z m 13.47859,-1.48501 c 0.32003,-0.17127 0.3063,-0.29012 -0.0674,-0.58411 -0.25066,-0.19717 -0.47835,-0.24405 -1.18526,-0.24405 -0.93743,0 -1.25141,0.10316 -1.45143,0.47692 -0.10975,0.20507 -0.0754,0.25905 0.26224,0.4116 0.44215,0.19981 2.02908,0.16058 2.4419,-0.0604 z M 51.59171,45.794154 c 1.275288,-0.64284 1.885501,-1.69327 1.040394,-1.79094 -0.194289,-0.0225 -0.618193,0.0136 -0.942009,0.0802 -0.323816,0.0666 -0.841454,0.15458 -1.150307,0.19556 -0.945587,0.12549 -1.116976,0.72124 -0.484976,1.68579 0.224289,0.34231 0.602645,0.3003 1.536898,-0.17063 z m 13.630551,-3.85819 c 0.52394,-0.21892 1.26555,-0.89956 1.54449,-1.41752 0.21272,-0.39499 0.21385,-0.42782 0.0214,-0.6203 -0.14161,-0.14161 -0.45052,-0.21722 -1.01867,-0.24932 -1.26626,-0.0715 -1.30334,-0.1328 -1.30334,-2.15303 0,-1.52611 -0.0215,-1.69 -0.28122,-2.14438 -0.3387,-0.59253 -0.43837,-1.1059 -0.43837,-2.25786 0,-0.90467 0.1637,-1.39715 0.63614,-1.91384 0.27965,-0.30584 0.66138,-0.33748 1.13248,-0.0939 0.49097,0.25389 0.60652,0.67062 0.57292,2.0662 -0.0255,1.05752 0.004,1.29464 0.20554,1.63906 0.28408,0.48612 0.48192,0.5742 0.58193,0.25909 0.11036,-0.34774 -0.14793,-3.02527 -0.33504,-3.4731 -0.21286,-0.50944 -0.67901,-0.86283 -1.41586,-1.07337 -1.6902,-0.48293 -5.89539,-0.6244 -7.517532,-0.25289 -0.84607,0.19376 -1.19078,0.40961 -0.7065,0.44238 0.23988,0.0162 0.17358,0.0219 0.95461,-0.0817 0.600492,-0.0797 0.620822,-0.0723 1.050532,0.38099 0.24101,0.25423 0.67649,0.93685 0.96774,1.51695 0.50522,1.00625 0.52957,1.10149 0.52988,2.07249 2.5e-4,0.76235 0.0476,1.07263 0.1885,1.23639 0.32686,0.37974 0.35064,0.63548 0.10975,1.18005 -0.12822,0.28986 -0.26718,0.78377 -0.30881,1.09757 -0.0718,0.54088 -0.0537,0.59249 0.34654,0.99276 0.71972,0.71972 0.51108,0.85348 -2.04234,1.30939 -1.819432,0.32485 -2.296852,0.48325 -2.296852,0.76209 0,0.35148 1.4152,0.61096 4.415682,0.80965 2.44461,0.16187 3.96591,0.15017 4.40644,-0.0339 z m -12.344579,-1.04177 c -0.0434,-0.27524 -0.176967,-0.84486 -0.296828,-1.26583 -0.11986,-0.42096 -0.362731,-1.29526 -0.539712,-1.94289 -0.693468,-2.53763 -1.369332,-4.41567 -1.589098,-4.41567 -0.281251,0 -0.410016,0.44827 -0.402678,1.40186 0.0067,0.87696 0.06768,1.1692 0.456543,2.18955 0.421795,1.10677 1.833774,4.06305 2.094957,4.38623 0.240613,0.29774 0.356196,0.15024 0.276816,-0.35325 z M 29.819899,100.86527 c 0.986463,-0.71459 4.508813,-4.208566 5.051383,-5.010696 0.472653,-0.69876 0.424035,-1.35528 -0.118677,-1.60255 -0.436919,-0.19907 -0.907474,0.11769 -2.512446,1.69133 -0.789201,0.77379 -1.487165,1.3746 -1.55103,1.33513 -0.06927,-0.0428 0.05298,-0.48703 0.303028,-1.10109 0.663242,-1.62876 1.09236,-3.17039 1.09236,-3.92437 0,-0.55794 -0.05409,-0.74259 -0.304846,-1.04059 -0.5503,-0.65399 -1.265148,-0.42483 -2.933313,0.94034 -1.384798,1.13327 -3.773688,3.67631 -4.168745,4.43775 -0.175204,0.33769 -0.01176,0.66883 0.447295,0.90621 0.576001,0.29787 1.003248,0.0718 2.462798,-1.30328 0.805223,-0.7586 1.374469,-1.21217 1.439594,-1.14705 0.06512,0.0651 -0.08325,0.78166 -0.375221,1.81209 -0.751576,2.65242 -0.695439,3.878286 0.194279,4.242446 0.375204,0.15356 0.466844,0.13138 0.973541,-0.23567 z m 75.113431,-6.533016 c 0.16299,-0.34179 0.16948,-0.45929 0.0423,-0.76626 -0.18808,-0.45409 -1.28559,-1.47837 -2.29549,-2.14234 -0.42304,-0.27814 -0.76917,-0.55428 -0.76917,-0.61365 0,-0.0602 0.24731,-0.0766 0.55932,-0.0371 1.30254,0.16492 3.31077,0.21086 4.03298,0.0923 0.61996,-0.10181 0.82794,-0.19498 1.09462,-0.49039 0.61038,-0.67614 0.24177,-1.10798 -2.79194,-3.27091 -3.5825,-2.55418 -4.18437,-2.83308 -4.76959,-2.21014 -0.486189,0.51752 -0.0444,1.13303 1.70179,2.37079 1.63411,1.15834 1.4858,1.43412 -0.65968,1.22665 -2.428999,-0.23489 -3.412169,-0.10305 -3.814889,0.51157 -0.45917,0.70078 0.16897,1.34412 3.547019,3.63287 3.45076,2.33801 3.75682,2.46397 4.12271,1.69668 z m -81.703705,-0.79738 c 0.263509,-0.26351 0.163036,-1.08271 -0.215352,-1.75586 -1.013222,-1.80252 -1.086788,-2.16221 -0.518408,-2.53462 0.47901,-0.31386 0.850172,-0.10845 2.0674,1.14418 1.157855,1.19153 1.439675,1.34528 1.801907,0.98304 0.384913,-0.38491 0.119259,-1.30516 -0.738138,-2.55697 -0.513802,-0.75016 -0.559067,-0.99603 -0.244925,-1.33042 0.528635,-0.56271 1.086333,-0.29693 2.216686,1.0564 0.980234,1.17359 1.376335,1.38092 1.853735,0.97027 0.265456,-0.22833 0.299611,-0.32824 0.233213,-0.68217 -0.155613,-0.82949 -2.633646,-4.45489 -3.045006,-4.45489 -0.363512,0 -6.715024,4.02627 -7.437626,4.71477 -0.217695,0.20742 -0.18939,0.25887 1.157935,2.1049 0.759597,1.04076 1.548859,2.02453 1.753916,2.18617 0.400702,0.31586 0.88638,0.38349 1.114663,0.1552 z m 87.483265,-9.33626 c 0.3173,-0.0912 0.3609,-0.5774 0.0869,-0.96863 -0.28586,-0.40812 -1.76253,-1.26195 -3.41334,-1.97364 -1.60865,-0.69351 -2.29468,-1.21244 -2.29766,-1.73802 -8.3e-4,-0.14667 0.088,-0.64954 0.19748,-1.11749 0.19053,-0.81464 0.18982,-0.86096 -0.0167,-1.0892 -0.33298,-0.36794 -0.53176,-0.29442 -1.25283,0.46336 -1.02224,1.07426 -2.34118,3.92565 -2.34118,5.06132 0,0.8322 0.59887,1.20549 1.17958,0.73526 0.14501,-0.11742 0.43448,-0.50159 0.64325,-0.85369 0.32151,-0.54224 0.42823,-0.63668 0.69741,-0.61721 0.1748,0.0127 1.20266,0.4466 2.28413,0.96434 2.48824,1.19121 3.28774,1.40531 4.23303,1.1336 z m -99.528575,-10.7403 c 0.712043,-0.56343 2.115939,-1.8506 3.119768,-2.86038 l 1.825144,-1.83597 1.000885,0.20595 c 1.691688,0.3481 3.874745,0.56926 5.619058,0.56926 h 1.664895 l -0.215144,-0.75231 c -0.45852,-1.60336 -1.714192,-4.19315 -2.836194,-5.84956 l -0.443973,-0.65544 0.649403,-0.99308 c 1.112809,-1.70173 2.423262,-4.54797 3.020905,-6.56128 l 0.184832,-0.62265 -0.907548,0.0729 c -1.479906,0.11881 -3.737179,0.38991 -5.533353,0.66455 l -1.682024,0.25719 -2.55702,-2.53643 c -2.886753,-2.86351 -3.779645,-3.62564 -3.930951,-3.35527 -0.3015766,0.53889 -1.5695106,5.5374 -1.8717206,7.37878 -0.07972,0.48572 -0.20746,0.95157 -0.283873,1.0352 -0.07641,0.0836 -0.888194,0.48723 -1.803959,0.89687 -1.834306,0.82052 -2.917374,1.42712 -4.284319,2.39952 l -0.904214,0.64323 0.315457,0.26162 c 1.62136,1.34462 3.822423,2.76052 5.580396,3.58976 0.690382,0.32565 1.297586,0.65873 1.349342,0.74018 0.05175,0.0814 0.26145,1.39332 0.465988,2.91525 0.351659,2.61663 0.912473,5.41656 1.084915,5.41656 0.04328,0 0.6612616,-0.46099 1.3733046,-1.02442 z m 105.254365,0.40622 c 0.31027,-1.07305 0.65176,-3.01214 0.95684,-5.43339 0.22879,-1.81574 0.33945,-2.3748 0.49214,-2.48645 0.10834,-0.0792 0.59825,-0.31525 1.08869,-0.52451 1.20781,-0.51535 3.00082,-1.59386 4.42424,-2.66122 1.83566,-1.37648 1.78299,-1.18923 0.56721,-2.01661 -1.51557,-1.03141 -2.49865,-1.57422 -4.2175,-2.32871 -0.84192,-0.36956 -1.59675,-0.73522 -1.67739,-0.81258 -0.0806,-0.0774 -0.25337,-0.72189 -0.38383,-1.43229 -0.4911,-2.67398 -1.69047,-7.12031 -1.92066,-7.12031 -0.24056,0 -1.51667,1.15531 -3.91203,3.54172 l -2.47735,2.46809 -1.34956,-0.22847 c -2.04477,-0.34617 -4.17314,-0.59645 -5.35311,-0.62949 l -1.05976,-0.0297 0.03,0.48661 c 0.0759,1.22971 1.50135,4.55731 2.78935,6.51134 0.35986,0.54595 0.65429,1.00407 0.65429,1.01806 0,0.014 -0.32455,0.5418 -0.72122,1.17293 -1.2258,1.95032 -2.57581,4.96292 -2.57581,5.74802 0,0.19535 0.0829,0.30658 0.26494,0.35536 0.74062,0.19848 4.16085,-0.0651 6.63547,-0.51135 l 1.2822,-0.23123 1.76682,1.79659 c 0.97175,0.98812 2.37618,2.28371 3.12095,2.87908 0.74478,0.59538 1.36363,1.08344 1.37523,1.08459 0.0116,10e-4 0.10152,-0.2761 0.19983,-0.61611 z M 4.7073594,58.200164 c 0.287793,-0.16162 0.658199,-0.54315 0.952249,-0.98083 0.42476,-0.63223 0.498569,-0.84628 0.62885,-1.82362 1.355142,-10.16603 5.5151776,-19.68366 12.2186096,-27.9546 1.502884,-1.85431 5.815942,-6.15655 7.748764,-7.72933 9.115321,-7.417317 20.31857,-11.9082721 31.963557,-12.8129691 2.015532,-0.156586 7.049632,-0.158908 9.026202,-0.0042 17.68027,1.384179 33.733549,10.7853391 43.328719,25.3742591 4.27942,6.50661 7.2276,14.018 8.41147,21.43073 0.29471,1.84527 0.40158,2.20484 0.85068,2.86216 0.63471,0.92897 1.64866,1.44082 2.1827,1.10186 0.41144,-0.26115 0.35638,-1.59344 -0.20034,-4.84716 -1.38145,-8.0739 -4.5255,-15.85604 -9.25285,-22.90261 -2.1991,-3.27798 -4.55192,-6.07569 -7.69216,-9.14667 C 98.351861,14.389063 90.675831,9.7118319 81.948881,6.7983299 72.424971,3.6187619 62.043101,2.8944779 52.043348,4.7119909 42.803699,6.3913499 33.786649,10.377973 26.298001,16.094543 c -4.937918,3.769421 -9.686255,8.811031 -13.144506,13.956331 -3.5595236,5.29598 -6.4663856,11.7107 -8.0313036,17.7231 -1.203102,4.6223 -1.983868,10.0793 -1.509919,10.55325 0.210428,0.21043 0.567987,0.16893 1.095087,-0.1271 z M 22.60175,53.045624 c 1.127465,-0.12847 2.079632,-0.56782 2.567525,-1.18471 0.185179,-0.23414 0.670929,-1.2939 1.079444,-2.35502 2.005982,-5.21057 4.285171,-8.93952 7.931722,-12.97698 4.303485,-4.76482 10.31235,-8.66263 16.561181,-10.74284 13.944379,-4.64202 29.210499,-1.29644 39.856059,8.73449 4.48276,4.22394 8.07852,9.74493 10.066499,15.45625 0.65682,1.887 1.08643,2.53512 1.87892,2.83458 0.86428,0.32658 6.33831,0.4838 7.12146,0.20453 1.19974,-0.42783 -0.24602,-0.8036 -3.69115,-0.95938 -3.64702,-0.1649 -3.66967,-0.17671 -4.41128,-2.30157 -1.38827,-3.97765 -3.745799,-8.1915 -6.554909,-11.71625 -1.32647,-1.6644 -4.44589,-4.78348 -6.10774,-6.10708 -6.08392,-4.84562 -13.16818,-7.79496 -21.01859,-8.75053 -2.35754,-0.28696 -6.96665,-0.28438 -9.24347,0.005 -9.538514,1.21307 -17.648973,5.14049 -24.202774,11.71996 -4.289132,4.30594 -6.985643,8.53088 -9.36426,14.67209 -0.651204,1.68131 -0.95578,2.12879 -1.555366,2.28513 -0.24116,0.0629 -1.816162,0.19509 -3.500004,0.29379 -1.683843,0.0987 -3.258322,0.23637 -3.498844,0.30595 -0.8348,0.24149 -0.712459,0.55458 0.277952,0.71131 0.716823,0.11343 4.397761,0.0317 5.807625,-0.1289 z m 92.73288,-5.60833 c 0,-0.10899 -0.21688,-0.83757 -0.48196,-1.61908 -6.55405,-19.32284 -23.580589,-33.371328 -44.027999,-36.3272121 -2.94369,-0.425541 -4.39511,-0.521479 -7.88933,-0.521479 -3.51395,0 -4.943502,0.0955 -7.948212,0.530964 -13.355161,1.9355311 -25.591492,8.7207171 -34.158924,18.9415171 -3.24276,3.86855 -5.933706,8.15733 -7.944296,12.66147 -1.322505,2.96268 -2.209723,5.89296 -1.883131,6.21955 0.181796,0.1818 0.261117,0.0358 0.721947,-1.32848 0.552896,-1.6369 1.74794,-4.46776 2.62454,-6.21711 8.422154,-16.8073 25.168514,-27.980983 44.165286,-29.468421 1.98156,-0.155155 6.80264,-0.158402 8.60296,-0.0058 7.29486,0.618369 13.60267,2.35375 19.97585,5.49569 8.55412,4.217121 15.670739,10.444321 20.908219,18.295151 1.94656,2.91783 3.41562,5.6946 5.39809,10.20332 0.62216,1.41498 1.23734,2.7449 1.36706,2.95538 0.25184,0.40863 0.5699,0.51162 0.5699,0.18453 z m -91.753594,-3.84901 c 1.360115,-0.69442 2.049575,-1.79066 2.120231,-3.37116 0.05753,-1.28685 -0.220641,-2.09084 -1.011379,-2.92319 -0.886555,-0.9332 -1.391268,-1.13923 -2.790852,-1.13923 -1.085309,0 -1.226921,0.0274 -1.808517,0.34951 -0.714505,0.39575 -1.304578,1.0297 -1.69402,1.81999 -0.221883,0.45027 -0.265502,0.73223 -0.265502,1.71629 0,1.35485 0.190503,1.85684 1.042638,2.74744 0.853007,0.8915 1.644241,1.20626 2.902028,1.15443 0.677704,-0.0279 1.027877,-0.11029 1.505373,-0.35408 z m 82.238324,-0.0459 c 0.76851,-0.33995 1.56338,-1.11367 1.94734,-1.89554 0.28327,-0.57682 0.32623,-0.80418 0.32623,-1.72653 0,-0.96375 -0.036,-1.13542 -0.38855,-1.85151 -0.8601,-1.7471 -2.84349,-2.56137 -4.70069,-1.92985 -1.27461,0.43342 -2.38943,1.8701 -2.5695,3.31135 -0.14802,1.18468 0.50752,2.83298 1.39496,3.50753 0.47937,0.36437 1.10224,0.68767 1.55373,0.80646 0.58688,0.15442 1.84471,0.0399 2.43648,-0.22191 z M 89.523001,29.478824 c 0.10388,-0.10389 0.12078,-0.62479 0.0645,-1.98923 l -0.0762,-1.8485 0.29874,-0.29873 c 0.16431,-0.16431 0.53003,-0.35727 0.81272,-0.42881 1.01214,-0.25615 1.47858,-0.48515 1.96093,-0.96272 1.80016,-1.78234 1.12474,-3.91791 -1.77229,-5.60374 -1.57299,-0.91534 -2.42221,-1.278724 -2.65436,-1.13579 -0.30035,0.18492 -3.77104,6.01677 -4.25473,7.14928 -0.50921,1.19228 -0.46808,1.97811 0.11417,2.18108 0.41818,0.14578 0.8465,0.0205 1.27887,-0.37418 0.33828,-0.30875 1.32024,-1.77883 1.53579,-2.2992 0.23609,-0.56999 0.3605,-0.44593 0.36517,0.36415 0.0163,2.82296 0.58537,4.61472 1.64244,5.17115 0.48499,0.25529 0.50227,0.25719 0.68423,0.0752 z m 0.18939,-6.28534 c -0.20053,-0.0989 -0.56222,-0.38227 -0.80376,-0.62964 -1.29744,-1.32869 -0.27261,-3.14188 1.37821,-2.43843 0.42666,0.18181 1.22203,0.93999 1.32438,1.26245 0.0986,0.31056 -0.39225,1.36155 -0.79355,1.69922 -0.40008,0.33664 -0.59969,0.35586 -1.10528,0.1064 z m -51.55274,5.89583 c 0.627186,-0.47838 0.566941,-0.68524 -0.71524,-2.45583 -0.230574,-0.31841 -0.414343,-0.7133 -0.414343,-0.89037 0,-0.3935 0.215976,-0.62889 1.413337,-1.54036 0.986024,-0.7506 1.216454,-1.01874 1.342675,-1.56244 0.05873,-0.25296 0.01015,-0.39191 -0.216141,-0.6182 -0.370048,-0.37005 -0.594304,-0.36676 -1.312965,0.0192 -1.766508,0.94883 -2.111358,1.10187 -2.482823,1.10187 -0.506377,0 -0.981682,-0.43974 -0.98058,-0.90722 0.0011,-0.48164 0.296624,-0.85424 1.375659,-1.73465 0.639889,-0.5221 1.045937,-0.95543 1.20695,-1.28804 0.31218,-0.64488 0.306801,-0.71258 -0.08083,-1.01749 -0.443825,-0.34911 -1.001172,-0.24472 -2.255359,0.42242 -1.205495,0.64124 -3.424053,2.17588 -3.425458,2.36949 -5.61e-4,0.0774 0.30873,0.66023 0.687314,1.29527 0.378584,0.63503 1.129712,1.89643 1.669175,2.80312 1.179752,1.98283 2.272063,3.64707 2.692009,4.10153 0.254759,0.2757 0.376378,0.32259 0.7018,0.27057 0.216501,-0.0346 0.57417,-0.20063 0.794821,-0.36892 z m 5.227405,-3.42701 c 0.36806,-0.33252 0.52215,-0.59947 0.709871,-1.2298 0.194153,-0.65193 0.332439,-0.88441 0.726907,-1.22206 0.832874,-0.71291 1.646716,-0.71303 2.80126,-4e-4 0.790589,0.48798 1.045964,0.49354 2.416484,0.0526 0.388579,-0.12501 1.527822,-0.39093 2.531651,-0.59092 3.69143,-0.73544 4.64834,-1.17505 4.43221,-2.03619 -0.13036,-0.51942 -0.6194,-0.61672 -2.274394,-0.45255 -0.80139,0.0795 -1.508764,0.11258 -1.571942,0.0735 -0.200077,-0.12366 -0.131313,-0.39289 0.581799,-2.27793 1.208287,-3.194004 1.73733,-5.331414 1.432187,-5.786253 -0.168041,-0.25048 -1.922539,-0.226427 -3.129741,0.04291 -2.236953,0.499073 -3.355909,1.052113 -3.355909,1.658643 0,0.59911 0.610467,0.72076 2.423692,0.48296 1.684715,-0.22094 1.579849,-0.21989 1.579849,-0.0158 0,0.0918 -0.455289,1.45628 -1.011753,3.03209 -1.409904,3.99261 -1.596242,4.50548 -1.661314,4.57251 -0.03143,0.0324 -0.224427,-0.13399 -0.428873,-0.36973 -1.494172,-1.72282 -4.198046,-4.65937 -4.925693,-5.34957 -1.469243,-1.39362 -2.366867,-1.64576 -2.970123,-0.8343 -0.234583,0.31554 -0.246615,0.46283 -0.2308,2.82506 0.02087,3.11719 0.484321,7.4514 0.823269,7.69925 0.333397,0.24378 0.602136,0.17689 1.101363,-0.27413 z m 0.37462,-4.43812 c -0.33094,-0.39876 -0.68365,-3.37405 -0.410786,-3.4652 0.14554,-0.0486 0.848657,0.7806 1.535308,1.81064 0.469928,0.70494 0.479803,1.1423 0.0332,1.47053 -0.420269,0.30887 -0.980243,0.39788 -1.157724,0.18403 z m 38.123965,3.45747 c 0.31558,-0.31559 0.45844,-0.9039 0.60232,-2.48043 0.068,-0.74477 0.20076,-2.12246 0.29508,-3.06153 0.25789,-2.567584 0.22927,-3.832854 -0.0999,-4.415674 -0.23755,-0.42065 -0.31992,-0.47491 -0.77045,-0.50755 -1.04138,-0.0755 -2.17073,0.83631 -4.20128,3.391824 -2.0133,2.53381 -3.11874,4.24733 -3.11874,4.83428 0,0.6533 1.21586,0.74788 1.9536,0.15196 0.96108,-0.77632 1.1337,-0.86431 1.69558,-0.86431 0.84023,0 1.54016,0.41777 1.7914,1.06925 0.11038,0.28621 0.2313,0.7153 0.26871,0.95352 0.0864,0.54996 0.63694,1.15651 1.04977,1.15651 0.16831,0 0.40855,-0.10253 0.53387,-0.22785 z m -2.50813,-4.72625 c -0.53124,-0.41787 -0.38161,-0.87523 0.67131,-2.05209 0.28972,-0.32382 0.56825,-0.5479 0.61896,-0.49797 0.13157,0.12956 0.20812,1.41267 0.11416,1.91352 -0.15446,0.82333 -0.79683,1.11448 -1.40443,0.63654 z m -5.91203,2.29647 c 0.42932,-0.42932 0.31907,-1.27172 -0.21198,-1.61968 -0.1406,-0.0921 -0.80439,-0.25441 -1.4751,-0.36064 -0.6707,-0.10623 -1.39044,-0.27428 -1.59943,-0.37345 -0.90726,-0.43052 -0.78503,-1.37654 0.22783,-1.76336 0.48639,-0.18575 0.66216,-0.19183 1.76577,-0.061 0.67408,0.0799 1.34866,0.10771 1.49906,0.0618 0.72241,-0.22044 0.89389,-0.84971 0.39358,-1.444304 -0.34137,-0.40569 -0.6296,-0.52906 -1.82867,-0.78272 -0.48635,-0.10289 -1.05455,-0.29062 -1.26266,-0.41718 -0.60941,-0.3706 -0.68045,-1.15628 -0.14084,-1.55757 0.28473,-0.21174 0.39149,-0.21712 1.79377,-0.0904 1.12757,0.10193 1.59187,0.10151 1.90472,-0.002 0.48673,-0.16064 0.76769,-0.51426 0.76769,-0.96626 0,-0.40093 -0.32495,-0.631085 -1.12017,-0.793384 -0.83557,-0.170532 -5.34781,-0.615199 -5.47088,-0.539136 -0.16011,0.09896 -0.11801,-0.15828 -1.31709,8.047054 -0.14106,0.96531 -0.20234,1.73049 -0.14327,1.78921 0.17508,0.17404 4.53438,1.03341 5.30528,1.04585 0.5164,0.008 0.78118,-0.0419 0.91239,-0.17311 z m -10.24704,-1.00324 c 0.93777,-0.18264 1.97221,-0.7435 2.30742,-1.25107 0.23835,-0.36089 0.29427,-0.59143 0.29377,-1.21112 -5.8e-4,-0.72438 -0.0328,-0.81348 -0.60172,-1.6632 -0.78924,-1.178794 -0.84657,-1.425554 -0.46062,-1.982494 0.42299,-0.61036 0.53302,-1.07093 0.39868,-1.66881 -0.24414,-1.086593 -0.84497,-1.745478 -1.98513,-2.176939 -0.56923,-0.215407 -3.9742,-0.378127 -4.77374,-0.228132 l -0.407312,0.07641 10e-4,4.675279 c 7.1e-4,2.571396 0.0339,4.872346 0.0737,5.113226 l 0.0724,0.43796 1.368762,0.0382 c 1.65885,0.0463 2.939,-0.009 3.7125,-0.1593 z m -2.64321,-2.08938 c -0.20249,-0.16396 -0.27976,-0.37373 -0.32104,-0.87149 -0.0511,-0.61613 -0.0344,-0.66865 0.27792,-0.87326 0.43209,-0.28309 1.59745,-0.28113 2.14349,0.004 0.43151,0.225 0.84738,0.81964 0.84805,1.2126 2.5e-4,0.14102 -0.13917,0.36622 -0.30981,0.50045 -0.4322,0.33996 -2.22983,0.35911 -2.63861,0.0281 z m 0.0422,-3.904784 c -0.58865,-0.24035 -0.71041,-1.30046 -0.20395,-1.77575 0.26348,-0.24727 0.4171,-0.28546 1.14807,-0.28546 1.11951,0 1.65147,0.28454 1.70429,0.91162 0.0597,0.70933 -0.42357,1.01862 -1.86129,1.19106 -0.29143,0.035 -0.64564,0.0163 -0.78712,-0.0415 z"
       id="path1" /></g></svg>
