<?xml version="1.0" encoding="UTF-8" standalone="no"?>
<!-- Created with Inkscape (http://www.inkscape.org/) -->

<svg
   width="210mm"
   height="297mm"
   viewBox="0 0 210 297"
   version="1.1"
   id="svg1"
   xml:space="preserve"
   inkscape:version="1.3.2 (091e20e, 2023-11-25, custom)"
   sodipodi:docname="igaming73.svg"
   xmlns:inkscape="http://www.inkscape.org/namespaces/inkscape"
   xmlns:sodipodi="http://sodipodi.sourceforge.net/DTD/sodipodi-0.dtd"
   xmlns="http://www.w3.org/2000/svg"
   xmlns:svg="http://www.w3.org/2000/svg"><sodipodi:namedview
     id="namedview1"
     pagecolor="#505050"
     bordercolor="#eeeeee"
     borderopacity="1"
     inkscape:showpageshadow="0"
     inkscape:pageopacity="0"
     inkscape:pagecheckerboard="0"
     inkscape:deskcolor="#505050"
     inkscape:document-units="mm"
     inkscape:zoom="1.0242632"
     inkscape:cx="476.44004"
     inkscape:cy="566.74886"
     inkscape:window-width="1920"
     inkscape:window-height="1009"
     inkscape:window-x="-8"
     inkscape:window-y="-8"
     inkscape:window-maximized="1"
     inkscape:current-layer="layer1" /><defs
     id="defs1" /><g
     inkscape:label="Calque 1"
     inkscape:groupmode="layer"
     id="layer1"><path
       id="path1"
       style="fill:#000000;fill-opacity:1;fill-rule:evenodd;stroke:none;stroke-width:0.648532"
       d="m 45.11767,0.00509298 c -0.87031,0.0299 -1.71483,0.21693 -2.38639,0.61561 C 40.940398,1.684033 16.036267,15.730753 16.036267,15.730753 c -1.011099,0.56975 -2.432397,2.6757 -2.452251,4.0014 -0.01961,1.32571 -0.01961,7.10346 -0.01961,7.10346 0,0 -9.042581,-5.40184 -10.289137,-5.95585 C 2.028713,20.325723 0.0098,21.869263 0.0098,22.819013 0.0098,23.768753 0,38.144403 0,38.144403 l 5.20472,9.26313 -2.881668,12.33987 4.140725,5.40106 25.268741,-0.1407 c 0,0 7.58348,4.393 10.045922,5.87607 2.46245,1.48306 5.79175,0.8953 6.88305,0.33566 1.09132,-0.55965 10.70714,-6.09773 10.70714,-6.09773 l 24.99132,0.0196 4.11541,-5.59994 -2.17741,-12.12958 5.02613,-9.61527 c 0,0 -0.0172,-13.22453 -0.0172,-14.62365 0,-1.39912 -2.1274,-2.79808 -3.19073,-2.18248 -1.06331,0.61561 -10.24097,5.98879 -10.24097,5.98879 0,0 -0.1684,-6.38038 -0.22428,-6.94005 -0.0559,-0.55965 -0.44815,-3.07855 -2.35095,-4.47767 -1.9028,-1.39914 -24.8485,-13.76751 -26.30358,-14.66291002 -0.90942,-0.55967 -2.43058,-0.94401 -3.88107,-0.89428 z m 0.2179,2.85760002 c 1.04267,-0.0123 2.08098,0.22109 2.43961,0.40659 0.57381,0.29679 25.06969,13.83081 25.58414,14.1474 0.51445,0.31659 1.89934,1.95881 1.87974,2.86899 -0.0196,0.91016 0.11912,10.21948 0.11912,10.21948 l -2.51814,1.73531 -0.0556,-12.03332 -6.10027,-3.41367 0.16839,20.48327 -14.97074,9.0668 1.23122,0.9234 1.24513,-0.84362 h 29.70584 l 0.79168,5.02616 -0.31667,0.25712 v 0.2964 l 0.6726,0.33693 1.1286,6.90587 -3.14639,3.7392 -7.93441,-0.0196 -0.0196,-1.42372 -1.46427,1.52378 h -5.49989 l 0.0988,-1.76191 -1.8202,1.64285 h -7.26179 l -0.57379,-0.53454 -0.75241,0.69286 -0.63333,0.0196 c 0,0 -8.62584,4.80889 -9.8724,5.46185 -1.24653,0.65284 -3.28515,0.21717 -4.0964,-0.17869 -0.81124,-0.39574 -9.458192,-5.34279 -9.458192,-5.34279 l -8.38913,-0.0392 -1.46427,-1.52381 -0.0596,1.52381 -7.895127,-0.0196 -1.859466,-1.8202 0.119126,1.8392 H 7.609935 l -3.027316,-3.81902 2.848725,-12.06879 v -0.61433 l 17.373594,-0.27612 2.19513,1.40473 0.2584,-1.14761 7.84446,-0.12917 0.72201,0.59406 0.69286,0.01 0.002,-0.57886 2.60175,-0.0556 -14.69081,-8.87046 -0.0279,-20.76319 -5.876069,3.49852 -0.111527,11.97634 -2.602998,-1.76321 c 0,0 0.206387,-8.31604 0.305266,-9.74067 0.09903,-1.42463 1.206627,-2.73038 1.760661,-3.12612 0.554033,-0.39572 24.436079,-13.69205 25.722199,-14.34501 0.48229,-0.24487 1.10973,-0.34009 1.73531,-0.34705 z m 0.028,2.44972 c -0.29659,0.007 -0.56857,0.0537 -0.75746,0.1483 -0.50368,0.25185 -17.208942,9.62666 -17.208942,9.62666 l 0.11153,2.82593 18.552862,9.4582 17.85241,-9.68238 -0.0556,-2.62961 -17.06961,-9.48605 c -0.36728,-0.17501 -0.93065,-0.27323 -1.425,-0.26095 z m 0.33441,5.21867 10.66531,5.59994 -10.78439,5.81653 -10.723592,-5.87606 z m -0.0988,1.99882 -5.540402,2.88799 5.678472,3.06658 5.52138,-3.12612 z m -18.174132,9.74824 -0.13923,6.66014 6.96668,4.08501 0.0279,-7.07941 z m 36.405262,0.11275 -7.10728,3.7772 0.11153,6.79946 7.10725,-4.08501 z m -25.352322,5.8482 -0.0836,7.10725 3.078002,1.62261 0.13922,-7.07941 z m 14.158782,0.13922 -2.88167,1.65173 0.13922,6.91094 2.77019,-1.51113 z m -23.084982,6.52079 -0.25208,3.41367 12.676792,8.08641 h 1.95827 v -3.05014 z m 32.739522,0.0556 -15.19492,8.33847 -0.028,3.02226 h 1.51114 l 14.10306,-8.45119 z m -53.446977,12.61979 -2.406685,10.74515 3.637872,0.0836 2.519414,-10.80086 z m 67.661507,0.0172 -6.15346,0.0392 0.25712,2.82973 h 4.5714 l -3.77973,7.04394 0.0596,0.98925 3.71893,0.0988 2.05833,-5.57968 z m 1.68212,0 0.41547,2.59287 0.92975,0.0392 0.0196,1.22614 -1.0488,0.0196 0.25715,2.05708 1.52378,-0.0196 0.27615,2.9678 -1.02853,0.0196 -0.0596,-0.91073 -1.5428,0.0392 0.17746,2.869 6.33205,0.0196 -1.08806,-5.89634 -1.78093,0.1179 -0.0196,-1.10833 1.66313,-0.0196 -0.67387,-4.0166 z m -63.130627,0.0122 -2.295207,10.83001 8.981916,0.028 1.036149,-6.63227 -3.582133,0.0556 -0.782798,4.44979 -1.76321,0.0836 0.979136,-5.9318 5.316198,0.0556 0.364805,-2.8272 z m 53.669907,0 -8.59054,0.0556 0.61561,10.77299 9.09467,0.1407 -0.6726,-6.79947 h -3.8608 l 0.11152,2.15461 0.9234,-0.0279 0.0556,2.3218 -2.43453,0.0279 -0.30779,-5.73546 5.42893,-0.0571 z m -34.054322,0.028 -3.49852,0.0556 -0.47501,5.65313 h -6.32448 l -0.67132,5.03625 3.44154,0.11276 0.47498,-3.47068 2.85507,0.0556 -0.36353,3.41366 3.27307,-0.0836 0.67135,-7.16299 0.70046,-0.0279 -0.0836,1.51113 h 1.50985 l 0.0848,-1.59474 0.83979,0.0279 -0.532,7.33148 3.46941,-0.0571 0.44839,-10.77299 -3.33006,0.0279 -0.72833,1.65173 -1.56688,-0.0556 z m 8.086382,0.0279 -0.36353,10.773 3.55301,0.0292 0.27992,-10.80213 z m 15.33426,0.0279 -3.41366,0.0848 -0.028,2.79806 h -1.56684 l -0.028,-1.48326 -1.20334,-0.0556 -0.14069,-1.31607 h -3.3858 v 10.71725 l 3.58213,0.028 v -7.33021 h 0.78408 l 0.13922,1.45414 1.9304,0.0556 0.028,5.73672 3.77847,0.0556 z m -28.625382,0.028 -1.53898,0.0569 -0.33569,1.45415 -1.84679,-0.0836 -0.44839,-1.28692 -0.22428,-0.028 -0.6156,4.67273 3.80634,-0.0556 0.13922,-1.90254 2.01526,-0.0279 v -0.61561 l -1.06399,-0.25207 z m -14.498253,11.57099 2.492794,2.13686 5.164202,-0.15834 -0.09878,-1.90001 z m 19.296393,0 -4.14074,0.22428 c 0,0 0.65705,1.58067 0.741,1.62258 0.0838,0.0419 4.05714,-0.15319 4.05714,-0.15319 z m 26.370732,0.0392 0.0596,1.9 4.64995,0.19757 2.69038,-1.90001 z m -5.93561,0.0392 v 1.44527 l 3.69995,0.0392 0.0784,-1.48453 z m 16.83781,0.0404 -1.08807,1.97852 2.57258,0.15834 1.56307,-1.99881 z m -29.36766,0.007 0.42052,1.5808 3.87472,0.0708 -0.27992,-1.6378 z m 6.36624,0.0556 -0.29386,1.73534 3.078,0.0419 0.69922,-1.76319 z m 28.5418,0.0544 -0.11913,1.86074 5.26426,0.0784 1.77966,-1.93928 z m -65.394171,0.0196 -4.709465,0.15834 1.404729,1.74167 3.403542,0.0196 z m 24.637919,0.0221 0.6156,1.35788 3.97354,0.028 -0.41927,-1.37051 z m -11.50006,0.15589 1.1742,1.691 3.37693,-0.10883 -1.02853,-1.52381 z m 28.051582,3.27179 -5.98752,0.0571 0.0147,3.23127 z m -14.536242,0.0147 5.862112,3.344 0.0419,-3.31613 z" /></g></svg>
