<?xml version="1.0" encoding="UTF-8" standalone="no"?>
<!-- Created with Inkscape (http://www.inkscape.org/) -->

<svg
   width="210mm"
   height="297mm"
   viewBox="0 0 210 297"
   version="1.1"
   id="svg1"
   xml:space="preserve"
   inkscape:version="1.3.2 (091e20e, 2023-11-25, custom)"
   sodipodi:docname="minecraft2.svg"
   xmlns:inkscape="http://www.inkscape.org/namespaces/inkscape"
   xmlns:sodipodi="http://sodipodi.sourceforge.net/DTD/sodipodi-0.dtd"
   xmlns="http://www.w3.org/2000/svg"
   xmlns:svg="http://www.w3.org/2000/svg"><sodipodi:namedview
     id="namedview1"
     pagecolor="#505050"
     bordercolor="#eeeeee"
     borderopacity="1"
     inkscape:showpageshadow="0"
     inkscape:pageopacity="0"
     inkscape:pagecheckerboard="0"
     inkscape:deskcolor="#505050"
     inkscape:document-units="mm"
     inkscape:zoom="0.70710678"
     inkscape:cx="445.47727"
     inkscape:cy="635.689"
     inkscape:window-width="1920"
     inkscape:window-height="1009"
     inkscape:window-x="-8"
     inkscape:window-y="-8"
     inkscape:window-maximized="1"
     inkscape:current-layer="layer1" /><defs
     id="defs1" /><g
     inkscape:label="Calque 1"
     inkscape:groupmode="layer"
     id="layer1"><path
       id="path1"
       style="fill:#000000"
       d="M 0,0 V 79.56156 H 79.690743 V 0 Z m 16.899744,20.39256 h 7.540625 7.540625 v 6.87917 6.87916 h -7.540625 -7.540625 v -6.87916 z m 30.427079,0 h 7.54063 7.54062 v 6.87917 6.87916 h -7.54062 -7.54063 V 27.27173 Z M 32.113285,35.6061 h 7.540628 7.54062 l 0.0734,3.76308 0.0734,3.76308 3.76308,0.0734 3.76308,0.0734 0.0692,10.78177 0.0692,10.78177 h -3.83956 -3.83956 v -3.83646 -3.83646 h -7.67291 -7.672919 v 3.83646 3.83646 h -3.839043 -3.839559 l 0.06925,-10.78177 0.06873,-10.78177 3.763077,-0.0734 3.763078,-0.0734 0.07338,-3.76308 z" /></g></svg>
