<?xml version="1.0" encoding="UTF-8" standalone="no"?>
<!-- Created with Inkscape (http://www.inkscape.org/) -->

<svg
   width="210mm"
   height="297mm"
   viewBox="0 0 210 297"
   version="1.1"
   id="svg1"
   xml:space="preserve"
   inkscape:version="1.3.2 (091e20e, 2023-11-25, custom)"
   sodipodi:docname="minecraft1.svg"
   xmlns:inkscape="http://www.inkscape.org/namespaces/inkscape"
   xmlns:sodipodi="http://sodipodi.sourceforge.net/DTD/sodipodi-0.dtd"
   xmlns="http://www.w3.org/2000/svg"
   xmlns:svg="http://www.w3.org/2000/svg"><sodipodi:namedview
     id="namedview1"
     pagecolor="#505050"
     bordercolor="#eeeeee"
     borderopacity="1"
     inkscape:showpageshadow="0"
     inkscape:pageopacity="0"
     inkscape:pagecheckerboard="0"
     inkscape:deskcolor="#505050"
     inkscape:document-units="mm"
     inkscape:zoom="1.0242632"
     inkscape:cx="353.42478"
     inkscape:cy="8.2986482"
     inkscape:window-width="1920"
     inkscape:window-height="1009"
     inkscape:window-x="-8"
     inkscape:window-y="-8"
     inkscape:window-maximized="1"
     inkscape:current-layer="layer1" /><defs
     id="defs1" /><g
     inkscape:label="Calque 1"
     inkscape:groupmode="layer"
     id="layer1"><path
       style="fill:#000000"
       d="m 2.1487264,20.578675 c -1.080845,-1.495616 -2.044965,-2.859287 -2.142491,-3.030379 -0.09752,-0.171094 0.960573,-3.981094 2.351329,-8.4666673 C 3.7483214,4.5960556 4.9485314,0.71768302 5.0246984,0.46302101 5.1478604,0.051234 5.5654434,0 8.7985614,0 h 3.6353776 l 1.157108,2.1716585 c 1.111004,2.0851301 1.166623,2.1431111 1.395924,1.4552081 0.196786,-0.590358 0.396121,-0.71645 1.132612,-0.71645 0.829982,0 0.914345,-0.08028 1.181639,-1.1244786 C 17.459537,1.167474 17.638983,0.51263101 17.699991,0.33073001 17.786351,0.073258 20.23739,0 28.765542,0 H 39.72017 L 40.12019,1.389063 40.52022,2.7781246 40.71733,1.389063 40.91445,0 h 47.0232 47.0232 l 0.56855,1.918229 c 0.3127,1.0550256 0.56817,2.0817446 0.56771,2.2815966 -4.6e-4,0.199853 -0.51844,1.215929 -1.15107,2.257947 l -1.15022,1.8945781 1.28252,4.3495543 c 0.70538,2.392255 1.28251,4.447305 1.28251,4.566778 0,0.119473 -0.90412,1.524845 -2.00916,3.12305 l -2.00916,2.905826 -3.73289,-0.07326 -3.73288,-0.07326 -1.29883,-5.392705 -1.29883,-5.392705 -1.23584,2.349997 -1.23584,2.349997 -1.38889,0.08026 -1.38889,0.08026 -1.42855,3.028593 -1.42855,3.028593 H 77.37823 40.58391 L 40.14255,21.69583 c -0.24275,-0.873126 -0.52553,-1.5875 -0.6284,-1.5875 -0.10286,0 -0.26785,0.714375 -0.36663,1.5875 l -0.17961,1.587499 H 27.918141 16.868369 L 15.975441,21.69583 15.082513,20.10833 H 13.57312 12.063728 l -0.370964,1.521354 -0.370963,1.521353 -3.6039506,0.07347 -3.603952,0.07347 z m 5.33127,-5.166696 c 0.287537,-0.982265 0.717746,-2.470547 0.956019,-3.307291 0.419791,-1.474179 0.461515,-1.521355 1.345533,-1.521355 0.8615406,0 0.9025096,0.04049 0.7362326,0.727605 -0.09684,0.400182 -0.277703,1.003245 -0.401915,1.34014 -0.3948456,1.070917 -0.2946716,1.133227 1.692387,1.052701 l 1.918229,-0.07774 0.385068,-1.521354 c 0.371138,-1.46632 0.416602,-1.521355 1.256771,-1.521355 0.479437,0 0.871269,0.0893 0.87074,0.198438 -5.3e-4,0.109141 -0.341546,1.547833 -0.757813,3.197094 -0.548114,2.171645 -0.670353,3.031849 -0.443224,3.119006 0.172493,0.06619 1.492722,0.08602 2.933841,0.04405 l 2.620217,-0.0763 1.758491,-7.8052083 C 23.317743,4.9675446 24.057909,1.365905 23.995387,1.256764 23.932867,1.147624 22.717059,1.058327 21.293595,1.058327 H 18.70548 l -0.322295,1.4401666 c -0.312715,1.397356 -0.351012,1.44258 -1.288299,1.521354 -0.940218,0.07902 -0.975874,0.121795 -1.335826,1.602541 l -0.369823,1.5213541 h -1.823565 c -1.002961,0 -1.822276,-0.0893 -1.820701,-0.1984371 0.0016,-0.109141 0.171201,-0.753109 0.376946,-1.43104 0.422303,-1.39149 0.356266,-1.545523 -0.662596,-1.545523 h -0.723758 l 0.37098,-1.232675 c 0.20404,-0.6779716 0.370981,-1.3369806 0.370981,-1.4644636 0,-0.127484 -1.213765,-0.197858 -2.6972556,-0.156387 l -2.697255,0.0754 -2.317137,7.4083327 c -1.274425,4.0745843 -2.384647,7.6762243 -2.46716,8.0036463 -0.148764,0.590317 -0.12565,0.595313 2.754231,0.595313 h 2.904253 z m 20.9308606,1.578307 c 0,-0.114196 0.654844,-3.690207 1.455208,-7.9466903 0.800365,-4.2564831 1.455209,-7.7944557 1.455209,-7.8621607 0,-0.06771 -1.220391,-0.122754 -2.711979,-0.12233 l -2.71198,7.71e-4 -1.663818,7.8705827 c -0.9151,4.3288203 -1.659241,7.9598793 -1.653646,8.0690203 0.01361,0.265481 5.831006,0.25631 5.831006,-0.0092 z m 7.778412,-0.519975 c 0.08115,-0.400182 0.327426,-1.918228 0.547286,-3.373436 0.722055,-4.7791533 0.589055,-4.4076653 1.544955,-4.3151293 0.46474,0.04499 0.83002,0.200858 0.81174,0.346379 -0.0183,0.145521 -0.11168,0.8896623 -0.20755,1.6536463 l -0.17432,1.389062 h 0.96897 0.96897 l -0.15733,0.992187 c -0.0865,0.545703 -0.2372,1.676797 -0.33483,2.513541 l -0.17749,1.521355 h 2.94684 c 2.23277,0 2.94685,-0.08287 2.94685,-0.341974 0,-0.188086 0.35637,-3.5516 0.79193,-7.4744783 0.43557,-3.9228781 0.79275,-7.4003957 0.79375,-7.7278177 0.002,-0.577361 -0.0771,-0.595312 -2.61533,-0.595312 -3.02215,0 -2.68682,-0.37897499 -3.219106,3.6380196 L 41.30029,7.1437497 H 40.4264 39.55251 l 0.0516,-1.5213541 c 0.0504,-1.485627 0.0341,-1.523358 -0.69268,-1.60668 -0.7397,-0.08481 -0.74315,-0.0941 -0.56482,-1.521354 L 38.52603,1.058334 h -2.671284 c -2.55251,0 -2.677478,0.02647 -2.810717,0.595312 -0.159921,0.6827586 -2.78106,15.206765 -2.78106,15.410145 0,0.07377 1.300228,0.134125 2.889394,0.134125 h 2.889395 z m 25.240981,-1.058332 0.0788,-1.653646 h -3.8837 -3.8837 l 0.164,-0.992187 c 0.0902,-0.545703 0.16531,-1.260078 0.16691,-1.5875 0.003,-0.588655 0.044,-0.595313 3.67877,-0.595313 4.14664,0 3.99706,0.08002 3.99706,-2.1383063 V 7.1437497 H 58.04422 54.34005 V 6.5153646 c 0,-0.345612 0.0744,-1.000456 0.16537,-1.455209 l 0.16536,-0.826822 h 3.5105 c 3.93449,0 3.83169,0.05382 3.83169,-2.0060151 V 1.058334 h -6.35 c -3.4925,0 -6.35,0.09737 -6.35,0.216373 0,0.119005 -0.35719,3.6929136 -0.79375,7.9420207 -0.43656,4.2491063 -0.79375,7.7851543 -0.79375,7.8578853 0,0.07273 3.06586,0.100461 6.81302,0.06162 l 6.81302,-0.07061 z m 15.39936,0.06615 V 13.758336 H 72.99315 69.15669 V 9.0354667 4.3125956 l 3.59477,-0.15072 c 1.97713,-0.0829 3.64995,-0.205893 3.71738,-0.273326 0.0674,-0.06743 0.0418,-0.731817 -0.057,-1.476409 L 76.23225,1.058338 h -6.16801 c -3.3924,0 -6.22087,0.0893 -6.28547,0.198437 -0.0646,0.109141 -0.20434,3.7405466 -0.31051,8.0697917 L 63.27524,17.19792 h 6.77717 6.77718 z m 7.77151,1.322916 c -0.0185,-0.14552 -0.11423,-1.604036 -0.21266,-3.241145 l -0.17895,-2.976563 h 0.91557 0.91556 l 0.17239,2.579688 c 0.0948,1.418828 0.23445,2.907109 0.3103,3.307291 l 0.1379,0.727605 h 2.91884 2.91884 l -0.14552,-0.859896 c -0.08,-0.472943 -0.28723,-2.371671 -0.46044,-4.219396 l -0.31493,-3.3595013 -0.95806,-0.08008 c -0.82471,-0.06893 -0.96972,-0.181361 -1.04178,-0.807687 -0.0779,-0.677156 -0.0162,-0.727604 0.89038,-0.727604 h 0.9741 L 91.28483,5.7546946 c -0.0868,-0.763985 -0.23497,-2.133203 -0.32924,-3.042709 L 90.78417,1.058341 h -6.35165 -6.35166 l 0.1643,3.2411446 c 0.0904,1.782631 0.24062,5.3247401 0.33391,7.8713544 0.0933,2.546615 0.22353,4.723437 0.28943,4.837384 0.17919,0.309865 5.77272,0.107716 5.73262,-0.207175 z M 83.97336,6.1070596 c 0,-0.570181 -0.0723,-1.225025 -0.1606,-1.455208 -0.12816,-0.333961 0.0322,-0.418514 0.79375,-0.418514 0.7314,0 0.95503,0.108165 0.95726,0.46302 0.002,0.254662 0.0767,0.909506 0.16691,1.455209 l 0.164,0.9921871 h -0.96066 c -0.94104,0 -0.96066,-0.02117 -0.96066,-1.0366941 z m 16.03555,9.7017984 c -0.0947,-0.763984 -0.24264,-1.895078 -0.32872,-2.513542 l -0.1565,-1.124479 h 0.91015 0.91015 l 0.37666,2.447396 0.37666,2.447396 2.84427,0.0751 c 2.51855,0.0665 2.84427,0.02413 2.84427,-0.369991 0,-0.523568 -2.34401,-14.5707785 -2.54461,-15.249377 -0.12532,-0.423904 -0.66064,-0.46302 -6.33676,-0.46302 h -6.19987 v 0.738848 c 0,0.4063665 0.35637,3.9484766 0.79193,7.8713537 0.43557,3.9228783 0.79275,7.2218013 0.79375,7.3309433 0.001,0.109141 1.32684,0.198438 2.94632,0.198438 h 2.9445 z M 97.88508,9.1942747 c -0.37765,-1.853706 -0.35992,-2.115243 0.15245,-2.2492291 0.85261,-0.222964 0.3812,-0.722375 -0.7621,-0.807357 -1.01415,-0.07538 -1.08285,-0.133643 -1.18452,-1.004574 l -0.10794,-0.92455 1.20509,0.07853 c 1.09508,0.07136 1.21273,0.144951 1.28881,0.806136 0.0732,0.636223 0.19781,0.727605 0.99218,0.727605 0.83302,0 0.90847,-0.06592 0.90847,-0.79375 0,-0.761422 0.0473,-0.79375 1.16168,-0.79375 1.13065,0 1.16456,0.02473 1.26979,0.926041 0.10679,0.914807 0.0959,0.926042 -0.8971,0.926042 -0.71712,0 -1.0052,0.113739 -1.0052,0.396875 0,0.218281 0.17156,0.396875 0.38126,0.396875 0.49889,0 0.57521,0.1593761 0.79186,1.6536461 0.17683,1.219612 0.16218,1.25677 -0.49545,1.25677 -0.50128,0 -0.67767,-0.137735 -0.67767,-0.529166 0,-0.428373 -0.17639,-0.529167 -0.92604,-0.529167 -0.74966,0 -0.92605,0.100794 -0.92605,0.529167 0,0.7646323 -1.01194,0.707399 -1.16952,-0.06615 z m 17.70889,7.4083333 c -0.18831,-0.80378 -1.19353,-5.786482 -1.19353,-5.916104 0,-0.05674 1.51804,-0.10499 3.37343,-0.107218 1.85539,-0.0022 3.51545,-0.09434 3.68902,-0.204687 0.24415,-0.155225 0.24282,-0.5285823 -0.006,-1.6495943 l -0.32144,-1.448959 -3.74405,-0.07329 -3.74406,-0.07329 -0.28497,-1.3288001 c -0.15674,-0.730839 -0.28498,-1.368392 -0.28498,-1.416783 0,-0.04839 1.54209,-0.13603 3.42688,-0.194755 1.88478,-0.05872 3.49414,-0.174039 3.57635,-0.256255 0.0822,-0.08222 0.008,-0.762623 -0.16502,-1.512014 L 119.60109,1.05833 h -6.30456 c -3.46751,0 -6.30456,0.05656 -6.30456,0.125681 0,0.271127 2.68266,15.116013 2.81024,15.55088 0.11868,0.404517 0.50196,0.463021 3.03347,0.463021 2.86988,0 2.89629,-0.0057 2.75816,-0.595313 z m 19.44397,0.428467 c 0,-0.171978 -3.41381,-11.8763774 -3.63623,-12.4670084 -0.0912,-0.242191 0.31023,-0.330729 1.49956,-0.330729 1.88564,0 2.01648,-0.160541 1.50941,-1.852084 l -0.3569,-1.1906246 -6.28939,-0.07102 -6.28939,-0.07102 0.17531,1.0963405 c 0.30817,1.9271771 0.49417,2.0884001 2.40934,2.0884001 h 1.70309 l 0.39194,1.389062 c 0.6906,2.4475501 3.06242,11.3127354 3.06242,11.4464514 0,0.07099 1.30969,0.129069 2.91042,0.129069 1.60073,0 2.91042,-0.07508 2.91042,-0.166845 z M 76.72562,12.016906 c -0.0883,-0.230183 -0.1606,-0.646902 -0.1606,-0.926042 0,-0.470892 -0.21963,-0.507527 -3.0427,-0.507527 h -3.04271 v 0.926042 0.926042 h 3.2033 c 2.8123,0 3.18371,-0.05109 3.04271,-0.418515 z"
       id="path1" /></g></svg>
