<?xml version="1.0" encoding="UTF-8" standalone="no"?>
<!-- Created with Inkscape (http://www.inkscape.org/) -->

<svg
   width="210mm"
   height="297mm"
   viewBox="0 0 210 297"
   version="1.1"
   id="svg1"
   xml:space="preserve"
   inkscape:version="1.3.2 (091e20e, 2023-11-25, custom)"
   sodipodi:docname="pcbs.svg"
   xmlns:inkscape="http://www.inkscape.org/namespaces/inkscape"
   xmlns:sodipodi="http://sodipodi.sourceforge.net/DTD/sodipodi-0.dtd"
   xmlns="http://www.w3.org/2000/svg"
   xmlns:svg="http://www.w3.org/2000/svg"><sodipodi:namedview
     id="namedview1"
     pagecolor="#505050"
     bordercolor="#eeeeee"
     borderopacity="1"
     inkscape:showpageshadow="0"
     inkscape:pageopacity="0"
     inkscape:pagecheckerboard="0"
     inkscape:deskcolor="#505050"
     inkscape:document-units="mm"
     inkscape:zoom="0.36213173"
     inkscape:cx="433.54389"
     inkscape:cy="581.28019"
     inkscape:window-width="1920"
     inkscape:window-height="1009"
     inkscape:window-x="-8"
     inkscape:window-y="-8"
     inkscape:window-maximized="1"
     inkscape:current-layer="layer1" /><defs
     id="defs1" /><g
     inkscape:label="Calque 1"
     inkscape:groupmode="layer"
     id="layer1"><path
       style="fill:#000000"
       d="M 5.5518,86.89893 C 2.732294,86.86793 0.003506,84.55806 0,82.02062 L 0.006,43.51699 0.012,5.01337 C 0.0187,2.54439 2.526117,0.24383 4.94901,0.17623 5.534598,0.15993 8.95147,0 43.484045,0 c 41.34686,0 38.30954,0.13014 39.53313,0.14449 2.10052,0.0246 4.09856,2.22327 4.08876,4.78484 l -0.004,38.57279 -0.004,38.57279 c 0.0215,2.00593 -2.55164,4.83575 -4.97565,4.85136 l -38.18479,0.009 C 22.93587,86.94027 5.66218,86.92387 5.55152,86.89877 Z M 6.36151,83.20434 C 6.78277,82.9865 7.42724,82.12151 7.51438,81.65698 7.70634,80.63377 7.27874,79.66734 6.38262,79.09903 5.96219,78.8324 5.7597,78.77706 5.21186,78.77905 c -1.35248,0.005 -2.16381,0.6657 -2.46445,2.00721 -0.0943,0.42071 -0.0763,0.59576 0.11298,1.10174 0.53566,1.43167 2.12358,2.02869 3.50112,1.31634 z m 76.417525,0.1558 c 0.82262,-0.22556 1.58648,-1.31247 1.58648,-2.25743 0,-0.45947 -0.2895,-1.23093 -0.57811,-1.54054 -0.42949,-0.46074 -1.25815,-0.80822 -1.94276,-0.81467 -0.52486,-0.005 -0.70996,0.051 -1.18331,0.35773 -0.65677,0.42557 -0.81145,0.63519 -1.04226,1.41241 -0.26066,0.87773 -0.0844,1.53057 0.61222,2.2671 0.29888,0.31602 0.64975,0.59534 0.7797,0.6207 0.47888,0.0935 1.34265,0.0713 1.76804,-0.0453 z m -36.59831,-0.6286 c 2.36374,-0.17954 4.40258,-0.44251 5.31346,-0.68533 0.42507,-0.11331 0.88932,-0.20603 1.03165,-0.20603 0.23393,0 1.28522,-0.27886 2.13432,-0.56614 0.18053,-0.0611 0.54979,-0.1593 0.82059,-0.21827 0.27079,-0.059 0.6475,-0.17739 0.83712,-0.26317 0.18963,-0.0858 0.38657,-0.15762 0.43765,-0.15966 0.0511,-0.002 0.28982,-0.0988 0.53053,-0.21511 0.2407,-0.11627 0.47944,-0.21307 0.53052,-0.21512 0.0511,-0.002 0.24802,-0.0752 0.43765,-0.16257 0.18962,-0.0874 0.72577,-0.3082 1.19143,-0.49072 1.98681,-0.77873 5.91998,-2.98757 7.06216,-3.96607 0.19767,-0.16934 0.40636,-0.30789 0.46375,-0.30789 0.0574,0 0.19108,-0.0721 0.29708,-0.16031 0.106,-0.0882 0.61122,-0.49265 1.12272,-0.89885 0.78311,-0.62188 1.46741,-1.21853 2.13036,-1.85746 0.0722,-0.0696 0.40116,-0.36506 0.73089,-0.65648 0.79006,-0.69824 2.9652,-3.08521 3.3119,-3.63441 0.15031,-0.23812 0.32491,-0.46484 0.388,-0.50383 0.52952,-0.32726 3.52338,-5.04148 4.40191,-6.93137 1.05456,-2.26857 1.18168,-2.55049 1.18168,-2.6207 0,-0.0408 0.16799,-0.51821 0.37333,-1.06097 0.66611,-1.76078 1.44672,-4.52431 1.59685,-5.65327 0.0452,-0.34 0.11629,-0.67332 0.15795,-0.74072 0.0417,-0.0674 0.1496,-0.72469 0.23988,-1.46065 0.0903,-0.73595 0.20769,-1.68275 0.26091,-2.10398 0.13243,-1.04819 0.12465,-6.16883 -0.0108,-7.11178 -0.0605,-0.42124 -0.17452,-1.31239 -0.25334,-1.98035 -0.0788,-0.66795 -0.17708,-1.26907 -0.21834,-1.33583 -0.0413,-0.0668 -0.11604,-0.4311 -0.16619,-0.80966 -0.0915,-0.69104 -0.69456,-3.07272 -1.08843,-4.29889 -0.82048,-2.55421 -2.17349,-5.50878 -3.60749,-7.87766 -0.43713,-0.72212 -0.85375,-1.41142 -0.92583,-1.53177 -0.1574,-0.26282 -1.31454,-1.86706 -1.7744,-2.45999 -1.68932,-2.17821 -4.23329,-4.78118 -6.4284,-6.57752 -1.05921,-0.86679 -4.44962,-3.19449 -5.27868,-3.6241 -0.18053,-0.0935 -0.89445,-0.46702 -1.58648,-0.82993 -1.94077,-1.01779 -5.51616,-2.45255 -6.89295,-2.76607 -0.43463,-0.099 -1.11434,-0.27222 -1.91471,-0.48803 -1.00492,-0.27097 -2.51,-0.58069 -3.11825,-0.64168 -0.33097,-0.0332 -1.04488,-0.1306 -1.58647,-0.21647 -2.33616,-0.37038 -8.698105,-0.3084 -10.231625,0.0997 -0.33009,0.0878 -0.82761,0.16029 -1.10561,0.16101 -0.278,7.1e-4 -0.8137,0.0998 -1.19043,0.22012 -0.37674,0.12035 -0.85247,0.21882 -1.05718,0.21882 -0.20472,0 -0.54896,0.0739 -0.765,0.16412 -0.21603,0.0903 -0.50548,0.16412 -0.64322,0.16412 -0.13774,0 -0.5133,0.0929 -0.83458,0.20643 -0.32128,0.11354 -0.95342,0.31498 -1.40474,0.44765 -0.45132,0.13267 -1.31294,0.43936 -1.91471,0.68155 -0.60177,0.24218 -1.29106,0.51065 -1.53177,0.59659 -0.7057,0.25197 -3.75816,1.81913 -4.65001,2.38737 -2.54223,1.61976 -3.37071,2.20499 -4.86883,3.4393 -2.14988,1.7713 -3.15033,2.77305 -5.37698,5.38398 -1.18902,1.39422 -1.54762,1.89727 -3.34425,4.69129 -0.37065,0.57641 -1.20515,2.11614 -1.83826,3.39177 -1.10704,2.23051 -2.22321,5.37726 -2.67783,7.54943 -0.0819,0.39115 -0.19863,0.90812 -0.25948,1.14882 -0.94296,3.73012 -1.12003,10.29208 -0.38087,14.11415 0.0931,0.48142 0.20647,1.14609 0.25192,1.47707 0.11363,0.82744 0.57653,2.69139 1.00536,4.04824 0.26265,0.83104 0.83202,2.47443 0.96663,2.79001 1.15127,2.699 1.76867,3.91871 2.97638,5.88 1.51377,2.45833 1.88312,2.96635 3.91837,5.38943 1.71519,2.04205 4.657,4.74959 6.78313,6.24298 2.15959,1.51689 5.28948,3.33185 6.71407,3.89338 0.3087,0.12168 0.61064,0.26126 0.67097,0.31019 0.0603,0.0489 0.28201,0.14034 0.49262,0.20314 0.35971,0.10724 0.99016,0.34248 2.40707,0.89814 0.33097,0.12979 0.84794,0.30339 1.14882,0.38578 0.30089,0.0824 0.99018,0.27928 1.53177,0.43755 0.54159,0.15827 1.23089,0.32733 1.53177,0.37568 0.30088,0.0483 0.67257,0.13693 0.82597,0.19685 0.1534,0.0599 0.62114,0.14268 1.03942,0.18394 0.41827,0.0413 0.93282,0.12024 1.14344,0.17551 0.21062,0.0553 1.39086,0.17688 2.62275,0.27026 1.2319,0.0934 2.249695,0.17939 2.261785,0.19114 0.0613,0.0596 2.15334,-0.013 3.6496,-0.12668 z m 4.84278,-8.21843 c -1.97308,-0.89565 -4.32584,-5.38296 -5.5377,-10.56179 -0.58454,-2.49799 -0.71535,-3.1107 -0.82928,-3.88413 -0.0576,-0.39115 -0.15499,-0.98197 -0.21639,-1.31294 -0.21892,-1.18014 -0.4718,-3.25058 -0.57409,-4.70045 -0.0572,-0.81004 -0.14994,-1.52825 -0.20618,-1.59602 -0.13047,-0.15721 -1.560035,-0.43053 -1.790095,-0.34225 -0.30412,0.1167 -0.75815,1.30548 -1.69977,4.45048 -0.16106,0.53792 -0.44032,1.58769 -0.61124,2.29765 -0.0797,0.33097 -0.19702,0.79871 -0.26078,1.03941 -0.10628,0.40131 -0.22828,0.97767 -0.7114,3.36087 -0.42616,2.10218 -0.68703,5.80727 -0.51843,7.36308 0.17778,1.64052 -0.1469,2.56901 -1.1239,3.21405 -0.40409,0.2668 -0.51207,0.28483 -1.64303,0.27444 -0.74165,-0.007 -1.4436,-0.0779 -1.81229,-0.18353 -0.33097,-0.0948 -0.84794,-0.20689 -1.14882,-0.24904 -0.30088,-0.0422 -0.63252,-0.12093 -0.73697,-0.17507 -0.10445,-0.0541 -0.39986,-0.14314 -0.65647,-0.19778 -0.56683,-0.1207 -1.37327,-0.38222 -2.10775,-0.68353 -0.30088,-0.12343 -0.64553,-0.25984 -0.76588,-0.30313 -2.19178,-0.78838 -5.15721,-2.80979 -6.53817,-4.4568 -1.1727,-1.39862 -1.33391,-1.9338 -1.01472,-3.36853 0.68449,-3.07664 3.48923,-6.74886 8.6613,-11.34015 1.07724,-0.95628 4.56022,-3.72528 5.86421,-4.6621 0.43735,-0.3142 0.5221,-0.43226 0.5221,-0.72722 0,-0.3899 -0.33059,-1.15289 -0.59439,-1.37182 -0.19576,-0.16247 -1.08949,-0.0882 -1.97679,0.16414 -0.76003,0.2162 -1.87601,0.49187 -2.46177,0.60811 -0.27079,0.0537 -0.71391,0.16679 -0.98471,0.25121 -0.27079,0.0844 -0.78776,0.23819 -1.14882,0.34168 -0.62724,0.1798 -2.96745,0.96166 -3.77472,1.26113 -2.84283,1.0546 -5.30015,2.19547 -6.60454,3.06634 -0.35287,0.23559 -0.66475,0.42834 -0.69306,0.42834 -0.0283,0 -0.33043,0.2179 -0.67136,0.48422 -0.86569,0.67622 -1.71806,0.85575 -2.61805,0.55141 -0.80793,-0.27321 -1.41999,-0.89071 -1.8007,-1.8167 -0.79234,-1.92719 -1.00452,-2.59494 -1.55965,-4.90835 -0.50755,-2.11513 -0.66747,-5.01563 -0.38307,-6.94766 0.25549,-1.73557 0.92989,-3.83947 1.39689,-4.35783 0.2571,-0.28537 1.15901,-0.72305 1.88293,-0.91376 0.33097,-0.0872 0.77409,-0.20338 0.98471,-0.25822 0.64479,-0.16786 4.32944,-0.1266 5.19711,0.0582 0.42121,0.0897 1.11049,0.19502 1.53173,0.23401 0.42123,0.039 0.89883,0.13792 1.06133,0.21983 0.1625,0.0819 0.44498,0.14893 0.62775,0.14893 0.3155,0 1.76417,0.34503 2.92035,0.69553 0.29311,0.0889 1.0499,0.31839 1.68176,0.51007 2.21059,0.67061 4.66448,1.54497 5.96295,2.1247 0.18053,0.0806 0.45132,0.18327 0.60177,0.22816 0.15044,0.0449 0.37064,0.14883 0.48934,0.23099 0.41326,0.28604 0.7741,0.18449 1.24487,-0.35034 0.24193,-0.27484 0.47328,-0.65179 0.5141,-0.83766 0.071,-0.32338 -0.01,-0.42087 -1.87669,-2.26293 -1.073,-1.05875 -2.13747,-2.08137 -2.36549,-2.27251 -0.22801,-0.19113 -0.79584,-0.69327 -1.26183,-1.11585 -0.46599,-0.42259 -1.02864,-0.90627 -1.25032,-1.07484 -0.22169,-0.16858 -0.9356,-0.72521 -1.58648,-1.23697 -2.0088,-1.57943 -3.8566,-2.74276 -5.82702,-3.66854 -1.82244,-0.85625 -2.02147,-0.98119 -2.43531,-1.52874 -0.50917,-0.67369 -0.62902,-1.39327 -0.37606,-2.25797 0.31485,-1.0763 2.83895,-3.94682 5.31987,-6.05001 0.61047,-0.51752 1.24214,-1.02241 1.40371,-1.12198 0.16157,-0.0996 0.53994,-0.3386 0.84082,-0.53118 2.18551,-1.39886 5.84691,-2.50901 7.01089,-2.12572 1.39219,0.45844 3.06758,2.3901 4.38924,5.06061 0.42363,0.85598 0.88327,1.87635 1.02142,2.2675 0.13815,0.39115 0.28479,0.76041 0.32587,0.82059 0.0657,0.0962 0.59962,1.74504 1.2046,3.72001 0.30219,0.98651 0.5669,2.01993 0.6586,2.57118 0.14109,0.84819 0.33637,1.78419 0.49078,2.35236 0.0818,0.30088 0.201555,0.94094 0.266195,1.42236 0.0646,0.48141 0.16227,1.023 0.21695,1.20353 0.0547,0.18053 0.13158,0.7056 0.17091,1.16683 0.0973,1.14108 0.17426,1.22385 1.22186,1.31381 0.47126,0.0405 1.11039,0.1078 1.4203,0.14963 0.51469,0.0695 0.57789,0.0536 0.73024,-0.18299 0.20435,-0.3174 1.23469,-2.90967 1.77723,-4.47141 0.2195,-0.63185 0.46092,-1.32115 0.53648,-1.53176 0.41578,-1.1589 1.22423,-4.09725 1.58042,-5.74413 0.49537,-2.29039 0.7019,-4.02289 0.7239,-6.07237 0.0224,-2.08991 0.21436,-2.57589 1.28552,-3.25501 0.50719,-0.32156 0.6412,-0.35559 1.40051,-0.35559 0.47305,0 1.00074,0.0671 1.2086,0.15371 0.20293,0.0845 0.61006,0.18968 0.90475,0.23366 0.29469,0.044 0.66395,0.14683 0.82059,0.22856 0.15664,0.0817 0.35905,0.14891 0.44981,0.14928 0.0908,3.7e-4 0.58311,0.15189 1.09412,0.3367 0.51101,0.18481 1.07681,0.38662 1.25734,0.44846 0.45303,0.15519 0.96997,0.38233 1.8053,0.79324 0.62559,0.30774 1.02552,0.53792 2.69207,1.54941 0.88338,0.53615 2.75862,2.31909 3.51194,3.33908 0.91219,1.23509 1.06107,1.71572 0.85614,2.76387 -0.22981,1.1754 -0.92016,2.66819 -1.78899,3.86839 -0.63179,0.87276 -2.32061,2.87938 -2.75267,3.27064 -0.21173,0.19174 -0.55854,0.51366 -0.7707,0.71536 -0.92126,0.87589 -2.3528,2.14307 -2.82361,2.49943 -0.28086,0.21258 -0.88906,0.68131 -1.35156,1.04162 -1.32014,1.02847 -2.47593,1.87231 -3.42616,2.50145 -0.48142,0.31873 -1.26933,0.84608 -1.75092,1.17189 -0.4816,0.3258 -0.97395,0.64615 -1.09412,0.71187 -0.12018,0.0657 -0.28103,0.24681 -0.35745,0.4024 -0.11966,0.24361 -0.10446,0.3693 0.10941,0.90514 0.1366,0.34224 0.36417,0.69939 0.50571,0.79369 0.23436,0.15612 0.31906,0.15499 0.94796,-0.0126 0.37984,-0.10121 0.90245,-0.18402 1.16135,-0.18402 0.25891,0 0.66933,-0.0684 0.91205,-0.15203 0.24271,-0.0836 0.76133,-0.20512 1.15248,-0.27001 0.39115,-0.0649 0.90812,-0.16573 1.14883,-0.2241 0.2407,-0.0584 0.83153,-0.18861 1.31294,-0.28941 1.31969,-0.27634 3.37137,-0.8227 4.37648,-1.16546 0.18053,-0.0616 0.54979,-0.17791 0.82059,-0.25855 1.85214,-0.55155 4.12701,-1.57302 6.18178,-2.77577 1.12148,-0.65646 1.25699,-0.7076 1.98764,-0.7502 0.93633,-0.0546 1.39187,0.0778 1.96262,0.57044 0.50712,0.4377 0.82189,1.02991 1.13859,2.14214 0.12851,0.45133 0.31017,1.04215 0.40369,1.31295 0.0935,0.27079 0.20839,0.74806 0.25525,1.06059 0.0469,0.31252 0.11542,0.61713 0.15236,0.67689 0.14231,0.23026 0.50045,3.61988 0.50045,4.73649 0,1.36778 -0.24728,3.49572 -0.50641,4.35782 -0.34552,1.14951 -1.00437,2.72238 -1.30601,3.11785 -0.373,0.48903 -0.85686,0.74336 -1.96787,1.03436 -1.19937,0.31415 -3.84028,0.3177 -5.31165,0.007 -0.56577,-0.11941 -1.14515,-0.21788 -1.28752,-0.21883 -0.14236,-9.4e-4 -0.48701,-0.0738 -0.76588,-0.16188 -0.27887,-0.0881 -0.95016,-0.26565 -1.49175,-0.39456 -1.37401,-0.32705 -5.28456,-1.63429 -5.87941,-1.96541 -0.10449,-0.0582 -0.2522,-0.10573 -0.32823,-0.10571 -0.24903,7e-5 -3.22384,-1.29747 -5.04569,-2.20082 -1.45561,-0.72174 -1.67519,-0.70996 -2.27335,0.12195 -0.5562,0.77356 -0.53549,0.85444 0.50026,1.95425 0.37622,0.39949 1.03828,1.13178 1.47123,1.62731 0.65368,0.74815 2.11645,2.21719 4.60462,4.62434 0.72818,0.70447 2.56288,2.2274 3.17359,2.6343 0.33222,0.22134 0.69783,0.50695 0.81246,0.63467 0.11464,0.12772 0.25787,0.23222 0.3183,0.23222 0.0604,0 0.36051,0.18898 0.66687,0.41995 0.30635,0.23098 1.15606,0.72516 1.88824,1.09819 0.88183,0.44927 1.46149,0.82241 1.71706,1.1053 0.36811,0.40745 0.72832,1.30212 0.72482,1.80025 -0.003,0.37044 -0.31326,1.15254 -0.64945,1.63506 -0.34902,0.50092 -2.87613,3.108 -3.56132,3.674 -0.46685,0.38565 -1.93253,1.51136 -2.22893,1.71193 -0.30063,0.20342 -2.23383,1.31428 -2.6399,1.51694 -0.78156,0.39005 -2.60618,0.95939 -3.72001,1.16075 -1.46645,0.26511 -2.22447,0.26385 -2.81606,-0.005 z m -6.07561,-26.14983 c 1.01037,-0.26878 1.65876,-0.65211 2.50277,-1.47968 0.96727,-0.94841 1.46639,-2.15231 1.48298,-3.577 0.0172,-1.47849 -0.53486,-2.83144 -1.55735,-3.81654 -2.27202,-2.18892 -5.600555,-2.11956 -7.734065,0.16117 -2.32825,2.48891 -1.72406,6.48901 1.23201,8.15666 1.321505,0.74553 2.668545,0.92918 4.073655,0.55539 z M 6.06606,8.05517 C 6.62571,7.82133 7.29905,7.11573 7.43616,6.61942 7.72496,5.57405 7.45556,4.68984 6.62553,3.95926 6.10601,3.50196 6.10362,3.50118 5.21883,3.50118 c -0.83656,0 -0.91797,0.0218 -1.45066,0.38869 -0.64545,0.44454 -1.05625,1.21161 -1.05891,1.97727 -0.002,0.59429 0.42092,1.42262 0.9346,1.83021 0.60286,0.47835 1.73386,0.64543 2.4222,0.35782 z m 77.100755,-0.1253 c 0.46495,-0.24044 1.06692,-1.1115 1.15232,-1.66744 0.14891,-0.96937 -0.31741,-1.95761 -1.18097,-2.50275 -0.3965,-0.2503 -0.53422,-0.2762 -1.28696,-0.24202 -0.79033,0.0359 -0.87491,0.0645 -1.35516,0.45801 -0.82563,0.67654 -1.13072,1.45499 -0.9325,2.37927 0.13613,0.63475 0.77464,1.43835 1.35549,1.70595 0.41299,0.19027 1.78063,0.11055 2.24778,-0.13102 z"
       id="path1"
       sodipodi:nodetypes="ccccssscccccccssscscscsscsssscssssssssssssssssssssssssssssssssssscssssscssscssssssssssssssssssssssssssssssssscssscsssssssscscsssssssssscsssssssssssssssssscsssssscssssssssssssssssssssssssssssscssssssssssssssssssssssssssssssssssssssscsssssssssssssssscsssssccsssssssssssscssssssssss" /></g></svg>
