<?xml version="1.0" encoding="UTF-8" standalone="no"?>
<!-- Created with Inkscape (http://www.inkscape.org/) -->

<svg
   width="210mm"
   height="297mm"
   viewBox="0 0 210 297"
   version="1.1"
   id="svg1"
   xml:space="preserve"
   inkscape:version="1.3.2 (091e20e, 2023-11-25, custom)"
   sodipodi:docname="satisfactory.svg"
   xmlns:inkscape="http://www.inkscape.org/namespaces/inkscape"
   xmlns:sodipodi="http://sodipodi.sourceforge.net/DTD/sodipodi-0.dtd"
   xmlns="http://www.w3.org/2000/svg"
   xmlns:svg="http://www.w3.org/2000/svg"><sodipodi:namedview
     id="namedview1"
     pagecolor="#505050"
     bordercolor="#eeeeee"
     borderopacity="1"
     inkscape:showpageshadow="0"
     inkscape:pageopacity="0"
     inkscape:pagecheckerboard="0"
     inkscape:deskcolor="#505050"
     inkscape:document-units="mm"
     inkscape:zoom="1.4485269"
     inkscape:cx="450.11246"
     inkscape:cy="510.51865"
     inkscape:window-width="1920"
     inkscape:window-height="1009"
     inkscape:window-x="-8"
     inkscape:window-y="-8"
     inkscape:window-maximized="1"
     inkscape:current-layer="layer1" /><defs
     id="defs1" /><g
     inkscape:label="Calque 1"
     inkscape:groupmode="layer"
     id="layer1"><path
       id="path1"
       style="fill:#000000;fill-opacity:1"
       d="M 51.626762,4.3473751e-4 C 15.87224,4.3473751e-4 18.13068,-0.03825526 15.493567,0.61435074 10.594496,1.8267287 6.4929792,4.6828237 3.6472622,8.8634587 c -0.684101,1.005009 -1.670055,2.8096553 -2.022099,3.7015853 -0.67310505,1.70536 -1.02980005,2.95326 -1.39733105,4.88962 -0.161984,0.85341 -0.182434,4.7149 -0.218074,41.06003 -0.02163,22.06491 -0.006087,41.22776 0.034623,42.583956 l 0.074414,2.466 H 50.476442 100.83409 l -0.0305,-44.024696 -0.0305,-44.0247 -0.25424,-1.10795 C 98.924822,7.4556297 93.949352,2.2592657 87.256632,0.55647274 84.940992,-0.03267926 87.050942,4.3473751e-4 51.626762,4.3473751e-4 Z M 50.286272,5.0425037 c 13.49294,0 13.18513,-0.01404 15.24817,0.676961 4.86139,1.628299 8.34544,5.6146283 9.18652,10.5109893 0.15504,0.90257 0.1788,2.28731 0.1788,10.36939 v 9.32811 l -1.24695,0.0718 c -1.62767,0.0938 -14.72449,0.0942 -16.46722,5.2e-4 l -1.34772,-0.0724 v -5.91178 -5.9123 h -5.41775 -5.418279 l -0.07441,2.1332 c -0.04081,1.17334 -0.05875,4.59173 -0.03979,7.59592 l 0.03462,5.4622 5.43016,-0.002 c 6.17827,-0.003 8.68102,0.10236 10.39523,0.43615 5.3973,1.05096 9.75138,4.39219 12.20546,9.36584 0.97736,1.9808 1.55347,3.8563 1.83193,5.96449 0.0749,0.56675 0.11472,7.25284 0.11472,19.31097 l -5.2e-4,18.44383 H 50.407202 25.915153 l -0.001,-4.40541 c -8e-4,-2.42287 -0.03361,-9.40482 -0.07235,-15.51533 l -0.07028,-11.10992 h 9.546187 9.546704 l 0.02842,5.93142 0.02894,5.9309 5.458067,0.0258 c 3.58265,0.0168 5.45751,-0.0126 5.45651,-0.0853 0,-0.061 0.0027,-2.97854 0.0067,-6.48333 0.005,-3.50479 0.0061,-6.8793 0.0021,-7.49928 l -0.0072,-1.12758 -6.95409,-0.0486 c -6.529405,-0.0459 -7.031085,-0.0638 -8.219658,-0.28732 -3.581094,-0.67344 -6.932638,-2.35236 -9.396843,-4.70772 -3.296699,-3.15109 -5.027998,-6.91824 -5.354712,-11.65045 -0.139642,-2.02267 -0.135229,-22.75883 0.0052,-24.23935 0.317023,-3.34309 1.611999,-6.107952 3.98787,-8.5147273 2.104736,-2.132112 4.109455,-3.211345 7.013526,-3.77548 1.025506,-0.199213 1.751902,-0.210323 13.367139,-0.210323 z m 38.46742,10.8701403 a 4.0641146,4.0641146 0 0 1 4.06384,4.06435 4.0641146,4.0641146 0 0 1 -4.06384,4.06383 4.0641146,4.0641146 0 0 1 -4.06435,-4.06383 4.0641146,4.0641146 0 0 1 4.06435,-4.06435 z m -73.644598,0.16123 a 4.0641146,4.0641146 0 0 1 4.064352,4.06435 4.0641146,4.0641146 0 0 1 -4.064352,4.06383 4.0641146,4.0641146 0 0 1 -4.063834,-4.06383 4.0641146,4.0641146 0 0 1 4.063834,-4.06435 z m -0.971,1.95182 -1.072286,1.85673 1.072286,1.85725 h 2.144055 l 1.072286,-1.85725 -1.072286,-1.85673 z m 73.216718,0.0155 -1.07177,1.85673 1.07177,1.85726 h 2.14457 l 1.07229,-1.85726 -1.07229,-1.85673 z m 1.1219,64.09376 a 4.0641146,4.0641146 0 0 1 4.06435,4.06435 4.0641146,4.0641146 0 0 1 -4.06435,4.06435 4.0641146,4.0641146 0 0 1 -4.06435,-4.06435 4.0641146,4.0641146 0 0 1 4.06435,-4.06435 z m -73.448233,0.17467 a 4.0641146,4.0641146 0 0 1 4.064352,4.06435 4.0641146,4.0641146 0 0 1 -4.064352,4.06383 4.0641146,4.0641146 0 0 1 -4.063834,-4.06383 4.0641146,4.0641146 0 0 1 4.063834,-4.06435 z m 72.389893,1.7818 -1.07228,1.85674 1.07228,1.85725 h 2.14458 l 1.07176,-1.85725 -1.07176,-1.85674 z m -73.260124,0.15813 -1.072286,1.85725 1.072286,1.85674 h 2.144572 l 1.072286,-1.85674 -1.072286,-1.85725 z" /></g></svg>
