<?xml version="1.0" encoding="UTF-8" standalone="no"?>
<!-- Created with Inkscape (http://www.inkscape.org/) -->

<svg
   width="210mm"
   height="297mm"
   viewBox="0 0 210 297"
   version="1.1"
   id="svg1"
   xml:space="preserve"
   inkscape:version="1.3.2 (091e20e, 2023-11-25, custom)"
   sodipodi:docname="scp.svg"
   xmlns:inkscape="http://www.inkscape.org/namespaces/inkscape"
   xmlns:sodipodi="http://sodipodi.sourceforge.net/DTD/sodipodi-0.dtd"
   xmlns="http://www.w3.org/2000/svg"
   xmlns:svg="http://www.w3.org/2000/svg"><sodipodi:namedview
     id="namedview1"
     pagecolor="#505050"
     bordercolor="#eeeeee"
     borderopacity="1"
     inkscape:showpageshadow="0"
     inkscape:pageopacity="0"
     inkscape:pagecheckerboard="0"
     inkscape:deskcolor="#505050"
     inkscape:document-units="mm"
     inkscape:zoom="1.0242632"
     inkscape:cx="210.8833"
     inkscape:cy="548.19894"
     inkscape:window-width="1920"
     inkscape:window-height="1009"
     inkscape:window-x="-8"
     inkscape:window-y="-8"
     inkscape:window-maximized="1"
     inkscape:current-layer="layer1" /><defs
     id="defs1" /><g
     inkscape:label="Calque 1"
     inkscape:groupmode="layer"
     id="layer1"><path
       style="fill:#000000;stroke-width:0.542061"
       d="M 47.227164,95.28338 C 38.488392,94.3678 30.640613,91.3918 24.159652,86.5358 c -0.776064,-0.58149 -1.485996,-1.05732 -1.577621,-1.05743 -0.09163,-9e-5 -1.864187,0.62342 -3.93903,1.38558 -3.217242,1.18182 -3.800056,1.35598 -3.960132,1.1834 C 14.457496,87.80437 -0.05960483,62.65185 1.84174e-4,62.60793 0.18072917,62.47531 6.0991552,57.00188 6.2148902,56.86049 c 0.103946,-0.12698 0.0941,-0.65552 -0.03236,-1.73773 -0.192209,-1.64464 -0.264715,-7.02462 -0.115139,-8.54321 0.124398,-1.26293 0.753888,-4.96757 1.091197,-6.42184 1.0386,-4.47784 2.9315268,-9.13863 5.3297408,-13.12297 3.380555,-5.61639 8.110517,-10.55706 13.58435,-14.18951 2.670156,-1.77192 4.619295,-2.80774 8.174963,-4.34436 L 34.893036,8.22196 35.599434,4.11098 36.305832,0 h 14.818856 c 8.15037,0 14.81886,0.02562 14.81886,0.05693 0,0.27493 1.8889,8.34153 1.97128,8.41845 0.0596,0.0556 0.59236,0.30482 1.18397,0.55379 1.52185,0.64044 4.26452,2.09051 5.97722,3.1602 6.66957,4.16558 12.41503,10.43067 16.00319,17.45054 2.71557,5.31275 4.16773,10.18375 4.86724,16.32632 0.25305,2.22201 0.21236,7.46684 -0.075,9.67261 -0.12787,0.98147 -0.21802,1.79256 -0.20032,1.80242 0.0177,0.01 1.45203,1.20242 3.18742,2.6501 1.735392,1.4477 3.172052,2.64336 3.192582,2.65704 0.0772,0.0514 -14.602562,25.38851 -14.773892,25.49954 -0.10662,0.0691 -1.77232,-0.38091 -4.11413,-1.1115 -2.16424,-0.6752 -4.01774,-1.22762 -4.11888,-1.22762 -0.10115,0 -0.73005,0.40115 -1.39757,0.89146 -4.53904,3.33402 -10.0202,5.86766 -15.72026,7.26661 -3.90835,0.95921 -5.79867,1.18688 -10.25316,1.23487 -2.129792,0.0229 -4.130502,0.0147 -4.446025,-0.0184 z m 7.693644,-2.6374 c 8.56902,-0.8482 16.45377,-4.05772 23.1419,-9.42001 l 0.57352,-0.45982 3.87235,1.19391 c 3.50421,1.08041 3.88999,1.17185 4.05785,0.9618 0.31444,-0.39348 12.22037,-21.07113 12.22037,-21.22375 0,-0.0789 -1.35804,-1.2824 -3.01788,-2.67442 -2.223,-1.86433 -2.99787,-2.59406 -2.94191,-2.77055 0.59398,-1.87353 0.85251,-9.29925 0.44286,-12.72047 -1.07522,-8.97965 -4.65801,-16.8964 -10.73312,-23.71654 -4.0476,-4.54398 -9.86022,-8.60329 -15.51772,-10.83698 -0.78873,-0.3114 -1.49049,-0.61309 -1.55947,-0.67041 -0.069,-0.0573 -0.28003,-0.77062 -0.46901,-1.58512 -0.18899,-0.81449 -0.60744,-2.59455 -0.9299,-3.95568 L 63.474358,2.293148 51.055688,2.329788 38.63702,2.366428 37.955698,6.23878 c -0.374727,2.12979 -0.684678,3.87992 -0.688787,3.88916 -0.0043,0.009 -0.572183,0.22548 -1.26239,0.4805 -3.508503,1.29636 -8.455181,4.13582 -11.652909,6.68893 -1.703856,1.36038 -5.032444,4.71741 -6.455241,6.51041 -5.3629,6.75826 -8.4461008,14.58401 -9.1820678,23.30581 -0.262808,3.11446 -0.144281,6.40183 0.369729,10.25456 l 0.08611,0.64539 -2.939962,2.72499 c -1.61698,1.49874 -2.944775,2.78301 -2.950662,2.85392 -0.01236,0.14872 11.9887918,21.00162 12.2501518,21.28559 0.14144,0.15367 0.827245,-0.0507 3.729463,-1.11151 3.537775,-1.29309 3.996267,-1.42173 4.154565,-1.16559 0.159426,0.25795 2.97551,2.3336 4.710291,3.4718 2.132138,1.39892 5.988054,3.31529 8.447733,4.19848 3.198302,1.14841 7.013562,2.02239 10.296894,2.35876 1.748662,0.17914 6.312326,0.18821 8.052196,0.016 z M 48.876499,80.08393 C 41.759901,79.43351 35.424087,76.58962 30.407917,71.79413 29.214964,70.65366 27.284912,68.41389 26.635902,67.41682 l -0.225568,-0.34653 -2.301441,1.31601 c -1.265794,0.72381 -2.336848,1.31601 -2.380121,1.31601 -0.08799,0 -1.852787,-3.03627 -1.790851,-3.08111 0.02168,-0.0157 1.023753,-0.59378 2.226885,-1.28467 1.203138,-0.69089 2.218874,-1.30689 2.257193,-1.36889 0.03832,-0.062 -0.179499,-0.65257 -0.484034,-1.31236 C 22.457232,59.4472 21.554266,55.76796 21.364437,52.16917 21.078201,46.74264 21.999104,42.0585 24.275707,37.36101 28.109962,29.44951 35.130084,23.70085 43.63379,21.509 c 1.452253,-0.37432 3.860718,-0.7945 5.09929,-0.88962 l 0.501971,-0.0385 0.03941,-2.33059 0.03941,-2.33058 h 1.789207 1.78919 v 2.36644 2.36644 h 0.51943 c 0.28568,0 1.20316,0.10152 2.03885,0.22561 11.02226,1.63665 20.18518,9.28356 23.81046,19.87103 2.42857,7.09251 2.03389,15.19232 -1.06761,21.90987 -0.26917,0.583 -0.4894,1.07763 -0.4894,1.09918 0,0.0215 1.03263,0.63312 2.29473,1.35906 1.2621,0.72594 2.29473,1.34803 2.29473,1.38243 0,0.0901 -1.57926,2.82215 -1.70952,2.95741 -0.06,0.0624 -1.11509,-0.4701 -2.34452,-1.18322 -1.22944,-0.71312 -2.2885,-1.29379 -2.35347,-1.29037 -0.065,0.003 -0.42394,0.44 -0.79772,0.97017 -4.34412,6.1618 -11.80096,10.66629 -19.61712,11.85022 -1.50038,0.22727 -5.37266,0.39168 -6.594605,0.28 z m 6.783459,-5.77871 c 3.97442,-0.81207 7.26072,-2.3096 10.38368,-4.73171 2.0604,-1.59801 5.31048,-5.15547 4.97762,-5.44839 -0.17576,-0.15466 -8.10378,-4.70949 -8.38229,-4.81581 -0.16488,-0.0629 -0.47458,0.35395 -1.21908,1.64096 -0.54892,0.94894 -1.06094,1.73447 -1.13781,1.74563 -0.1381,0.0201 -7.1621,-10.76639 -7.07055,-10.85794 0.0898,-0.0898 13.01884,0.57088 13.01884,0.66528 0,0.052 -0.42931,0.84923 -0.95403,1.77158 -0.80718,1.4189 -0.92308,1.70538 -0.75295,1.86129 0.2876,0.26357 8.23251,4.81756 8.40475,4.81756 0.32825,0 1.5753,-3.50843 2.07761,-5.84511 0.2906,-1.35186 0.33126,-1.93718 0.33126,-4.768 0,-2.82919 -0.0408,-3.41656 -0.33066,-4.76505 -0.99721,-4.63841 -3.09864,-8.67299 -6.22041,-11.9427 -4.17976,-4.37782 -9.28128,-6.90729 -15.28413,-7.57829 l -0.60954,-0.0681 v 5.36462 5.36461 h 2.15131 c 1.18322,0 2.1513,0.0223 2.1513,0.0496 0,0.0531 -5.79463,11.31284 -5.95795,11.57711 -0.0767,0.12404 -6.089361,-11.28691 -6.089361,-11.55645 0,-0.0387 0.93582,-0.0703 2.079597,-0.0703 h 2.079596 v -5.29809 c 0,-2.91395 -0.04841,-5.3271 -0.107566,-5.36256 -0.153263,-0.0919 -2.728125,0.28208 -3.796668,0.55138 -6.90874,1.74115 -12.560136,6.10775 -15.868038,12.26057 -1.183786,2.20189 -2.117308,5.0123 -2.620167,7.88813 -0.110825,0.6338 -0.185174,2.13609 -0.180989,3.65722 0.0075,2.72556 0.172224,4.00097 0.833614,6.45392 0.334165,1.23936 1.399229,4.02693 1.624292,4.25125 0.08873,0.0884 8.347252,-4.55413 8.6669,-4.87213 0.05318,-0.0529 -0.375172,-0.90296 -0.951925,-1.88898 -0.576753,-0.98601 -1.018479,-1.82481 -0.981613,-1.86399 0.05933,-0.0631 12.983967,-0.72033 13.049931,-0.66364 0.0545,0.0468 -6.978839,10.91653 -7.085614,10.95047 -0.06145,0.0195 -0.55486,-0.73817 -1.096471,-1.6838 -0.541612,-0.94563 -1.005248,-1.71932 -1.030312,-1.71932 -0.221682,0 -8.464462,4.89972 -8.495343,5.04985 -0.06492,0.31561 2.187006,2.90579 3.61253,4.15516 3.618297,3.17118 7.974188,5.19493 12.761452,5.92899 1.866864,0.28626 6.151345,0.17682 8.019185,-0.20483 z"
       id="path1" /></g></svg>
