<?xml version="1.0" encoding="UTF-8" standalone="no"?>
<!-- Created with Inkscape (http://www.inkscape.org/) -->

<svg
   width="210mm"
   height="297mm"
   viewBox="0 0 210 297"
   version="1.1"
   id="svg1"
   xml:space="preserve"
   sodipodi:docname="starfield.svg"
   inkscape:version="1.3.2 (091e20e, 2023-11-25, custom)"
   xmlns:inkscape="http://www.inkscape.org/namespaces/inkscape"
   xmlns:sodipodi="http://sodipodi.sourceforge.net/DTD/sodipodi-0.dtd"
   xmlns="http://www.w3.org/2000/svg"
   xmlns:svg="http://www.w3.org/2000/svg"><sodipodi:namedview
     id="namedview1"
     pagecolor="#505050"
     bordercolor="#eeeeee"
     borderopacity="1"
     inkscape:showpageshadow="0"
     inkscape:pageopacity="0"
     inkscape:pagecheckerboard="0"
     inkscape:deskcolor="#505050"
     inkscape:document-units="mm"
     inkscape:zoom="0.70710678"
     inkscape:cx="414.36457"
     inkscape:cy="652.65956"
     inkscape:window-width="1920"
     inkscape:window-height="1009"
     inkscape:window-x="-8"
     inkscape:window-y="-8"
     inkscape:window-maximized="1"
     inkscape:current-layer="layer1" /><defs
     id="defs1" /><g
     inkscape:label="Calque 1"
     inkscape:groupmode="layer"
     id="layer1"><path
       id="path1"
       style="fill:#000000;fill-opacity:1"
       d="M 54.863354,4.9170808e-7 C 53.077034,7.0491708e-5 52.698574,0.00980049 51.417054,0.08888049 46.34443,0.40173149 41.38158,1.4270615 36.65102,3.0917975 c 2.35634,5.969635 3.92312,18.4598445 -5.37848,32.6538245 -10.18642,15.54423 -17.66096,16.93337 -23.41562,26.65677 -1.91639,3.23805 -3.25865,7.69439 -4.20905,12.19771 0.33487,0.86907 0.68625,1.73258 1.06608,2.58589 0.532,1.19509 1.32953,2.81688 1.91617,3.8964 2.43892,4.48799 5.40212,8.51401 8.90901,12.10727 5.954,-6.1187 19.29006,-16.8305 40.207374,-16.8305 20.32108,0 34.649,12.16442 38.86584,16.24242 3.67032,-3.86116 6.808036,-8.23152 9.233536,-12.9899 0.90947,-1.7842 1.70522,-3.62653 2.41019,-5.50509 -0.94412,-4.33371 -2.26095,-8.58409 -4.10724,-11.70368 -5.754656,-9.72341 -13.229206,-11.11256 -23.415626,-26.65677 -9.25746,-14.12665 -7.74951,-26.5645195 -5.41207,-32.5675285 -4.80489,-1.716555 -9.85335,-2.77157401 -15.012,-3.08973301 -1.28655,-0.07936 -1.6581,-0.08895999829 -3.44578,-0.0888799982919 z M 20.5471,12.043192 c -0.67796,0.54409 -1.34727,1.09989 -2.00143,1.67793 -1.46195,1.29185 -3.03961,2.84844 -4.34702,4.28863 -2.23651,2.46365 -4.29447,5.19654 -6.04873,8.03362 -4.73892,7.66397 -7.50773996,16.37152 -8.06151996,25.35194 -0.0803,1.30254 -0.0883000001,1.61559 -0.08840000009112,3.42408 C -3.9960091e-5,55.595762 0.03000004,55.874492 0.03820004,56.306642 5.30091,50.866032 27.26822,24.422432 20.62299,12.197702 c -0.0291,-0.0534 -0.0479,-0.10159 -0.076,-0.15451 z m 68.833524,0.1602 c -6.52718,12.02508 14.622756,37.81194 20.328986,43.83557 0.009,-0.54649 0.0263,-1.05097 0.0212,-1.68931 -0.0119,-1.47251 -0.0218,-1.787 -0.0925,-2.94349 -0.73631,-12.03835 -5.47997,-23.55846 -13.444656,-32.6502 -1.45286,-1.65843 -3.17652,-3.398 -4.8178,-4.86275 -0.65179,-0.5817 -1.31918,-1.14199 -1.99522,-1.68982 z m -34.75343,6.17326 c 0.0544,-0.007 0.10704,3.3e-4 0.17208,0.0196 0.14085,0.0418 0.3145,0.20502 0.33848,0.31781 0.0369,0.17335 0.21351,0.75278 0.30541,1.00149 0.28908,0.78236 0.69497,1.56982 1.11724,2.16834 1.08123,1.53263 2.82255,2.67574 5.04879,3.31453 0.15726,0.0451 0.26871,0.13995 0.33641,0.28525 0.068,0.14667 0.0653,0.26026 -0.009,0.40618 -0.087,0.17009 -0.17553,0.23104 -0.43408,0.29714 -0.3233,0.0827 -0.96648,0.3043 -1.31104,0.45165 -1.23259,0.52717 -2.21554,1.207 -2.93677,2.03192 -0.91445,1.04595 -1.5475,2.21996 -2.01692,3.73931 -0.11563,0.37423 -0.14991,0.43451 -0.30024,0.52761 v -5.1e-4 c -0.0857,0.0531 -0.23817,0.0828 -0.3297,0.0636 -0.111,-0.0233 -0.26721,-0.12646 -0.32504,-0.21446 -0.0293,-0.0446 -0.0634,-0.12553 -0.0754,-0.17983 -0.0394,-0.17757 -0.19701,-0.68163 -0.30128,-0.96377 -0.35043,-0.94827 -0.83621,-1.83052 -1.38647,-2.51767 -1.03421,-1.29147 -2.695004,-2.33131 -4.625054,-2.89595 -0.25827,-0.0756 -0.29351,-0.0923 -0.37568,-0.17622 -0.16958,-0.17318 -0.20063,-0.39545 -0.0832,-0.59583 0.0822,-0.14029 0.17471,-0.19763 0.41806,-0.25993 0.57309,-0.14675 1.30639,-0.42781 1.91513,-0.73329 1.271494,-0.63805 2.155824,-1.39865 2.959514,-2.54661 0.59865,-0.8551 1.0652,-1.854 1.43247,-3.067 0.0766,-0.25296 0.13348,-0.3356 0.28319,-0.41031 0.0725,-0.0362 0.12902,-0.0564 0.18345,-0.063 z m 17.04133,23.14071 c 0.0618,-0.0235 0.17652,0.0121 0.20412,0.0636 0.0107,0.02 0.0607,0.16331 0.11111,0.31833 0.11123,0.34189 0.32231,0.77034 0.50694,1.02991 0.17528,0.24641 0.52289,0.58098 0.78858,0.75861 0.27192,0.18179 0.71539,0.39551 1.03147,0.49713 0.2742,0.0882 0.3514,0.14359 0.3514,0.2527 0,0.10715 -0.0789,0.17026 -0.28681,0.22996 -0.22748,0.0653 -0.57295,0.20603 -0.76688,0.31264 -0.78132,0.4295 -1.28473,1.06336 -1.61489,2.03347 -0.0597,0.17528 -0.11617,0.30329 -0.14417,0.32659 -0.0253,0.0211 -0.0782,0.0382 -0.11783,0.0382 -0.11835,0 -0.15539,-0.053 -0.26148,-0.37827 -0.31723,-0.97262 -0.85127,-1.60573 -1.72496,-2.0438 -0.17505,-0.0878 -0.437,-0.19783 -0.58187,-0.24443 -0.29985,-0.0965 -0.37052,-0.14678 -0.37052,-0.26252 0,-0.083 0.0768,-0.18752 0.13849,-0.1881 0.0795,-7.4e-4 0.56437,-0.1814 0.79323,-0.29559 0.61263,-0.3057 1.0224,-0.68877 1.38183,-1.29191 0.13353,-0.22408 0.30096,-0.60702 0.38396,-0.87902 0.0593,-0.19449 0.0916,-0.2446 0.17828,-0.2775 z m -33.904394,0.0884 c 0.0686,0 0.19792,0.0947 0.19792,0.14469 0,0.0169 0.0308,0.1271 0.0682,0.24495 0.0821,0.25858 0.28298,0.68714 0.42581,0.90847 0.40085,0.62115 1.03343,1.08231 1.87637,1.36788 0.31879,0.10799 0.37311,0.14665 0.37311,0.26406 0,0.0808 -0.0722,0.1871 -0.12764,0.18759 -0.0751,6.6e-4 -0.56107,0.17739 -0.77929,0.2837 -0.84501,0.41167 -1.41645,1.0931 -1.75028,2.08618 -0.0507,0.1509 -0.11352,0.29606 -0.13901,0.32246 -0.0679,0.0704 -0.14374,0.0813 -0.22427,0.0315 -0.0562,-0.0347 -0.0775,-0.0717 -0.11576,-0.2036 -0.22493,-0.77484 -0.61673,-1.38691 -1.15445,-1.80248 -0.36677,-0.28346 -0.6972,-0.45671 -1.20354,-0.63148 -0.16956,-0.0585 -0.31724,-0.12261 -0.33435,-0.14521 -0.0168,-0.0222 -0.0306,-0.0757 -0.031,-0.11886 -0.001,-0.11143 0.066,-0.16426 0.29248,-0.22996 0.63686,-0.18463 1.24262,-0.5542 1.61903,-0.98754 0.30647,-0.35282 0.60297,-0.88883 0.75654,-1.36839 0.0885,-0.27632 0.14327,-0.35398 0.25011,-0.35398 z m 16.906984,4.45812 c 0.0515,6.5e-4 0.10456,0.0155 0.1633,0.0439 0.13084,0.0633 0.16411,0.12124 0.25528,0.44235 0.17554,0.61829 0.53599,1.43609 0.85628,1.942 0.78792,1.24452 2.05125,2.1633 3.70209,2.69338 0.49616,0.15932 0.50635,0.16414 0.57775,0.27956 0.14163,0.22909 0.0299,0.50071 -0.23306,0.56741 -0.89547,0.22723 -1.89156,0.69698 -2.56522,1.20975 -1.02291,0.77861 -1.79878,1.96193 -2.28978,3.49229 -0.10608,0.33062 -0.13559,0.3985 -0.19327,0.447 -0.0374,0.0314 -0.0878,0.0644 -0.11265,0.0734 -0.15837,0.0581 -0.29065,0.0303 -0.40721,-0.0863 -0.0656,-0.0656 -0.0899,-0.1138 -0.12144,-0.24391 -0.0217,-0.0892 -0.0877,-0.3046 -0.14677,-0.47852 -0.57189,-1.68453 -1.48848,-2.81088 -2.96829,-3.64681 -0.425874,-0.24057 -0.887004,-0.43913 -1.458314,-0.62787 -0.49877,-0.16476 -0.51498,-0.172 -0.57567,-0.2558 -0.11845,-0.16351 -0.11114,-0.33964 0.0202,-0.47955 0.073,-0.0778 0.10969,-0.0941 0.37724,-0.17105 1.26796,-0.36444 2.388254,-1.02037 3.096974,-1.8123 0.71589,-0.79991 1.2488,-1.7723 1.603,-2.92747 0.0884,-0.2882 0.12763,-0.35118 0.2651,-0.42168 0.0527,-0.0271 0.10298,-0.0404 0.15451,-0.0398 z m 29.82867,16.33647 c 0.0776,-0.0397 0.13666,-0.0381 0.22996,0.006 0.10341,0.0491 0.12805,0.0932 0.20515,0.36793 0.19151,0.68205 0.56881,1.4087 0.99426,1.91513 0.53241,0.63375 1.38158,1.18124 2.31304,1.49087 0.4915,0.16343 0.48438,0.15992 0.53278,0.23822 0.0701,0.11353 0.0598,0.23803 -0.0269,0.33073 -0.0605,0.0648 -0.11104,0.0875 -0.33487,0.15193 -0.50438,0.14509 -1.08722,0.41158 -1.49189,0.68213 -0.90494,0.60503 -1.54097,1.50093 -1.94717,2.74299 -0.0599,0.18311 -0.12842,0.35098 -0.15452,0.37878 -0.0258,0.0274 -0.082,0.0598 -0.12505,0.0718 v -5.1e-4 c -0.095,0.0263 -0.0857,0.0265 -0.1664,-0.009 -0.10225,-0.0455 -0.15774,-0.1215 -0.19534,-0.26769 -0.15074,-0.58595 -0.4663,-1.26415 -0.82062,-1.76371 -0.55166,-0.77787 -1.49601,-1.42714 -2.58382,-1.77716 -0.15694,-0.0505 -0.31727,-0.10579 -0.35657,-0.12299 -0.14259,-0.0624 -0.20175,-0.25854 -0.11885,-0.39429 0.0497,-0.0813 0.0875,-0.10007 0.37672,-0.18707 1.01702,-0.30608 1.81908,-0.80277 2.38383,-1.47588 0.44833,-0.53435 0.79085,-1.16964 1.04283,-1.93528 0.1104,-0.33545 0.13995,-0.38937 0.2434,-0.44287 z m -59.841314,0.0186 c 0.0676,0.009 0.13241,0.0423 0.18035,0.0971 0.0196,0.0224 0.0673,0.15284 0.10594,0.2899 0.23628,0.83814 0.68211,1.62682 1.22577,2.16783 0.56705,0.5643 1.28873,0.98367 2.22053,1.29036 0.30763,0.10122 0.34425,0.11895 0.38964,0.18655 0.0617,0.0919 0.0645,0.20841 0.007,0.30231 -0.0533,0.0875 -0.0686,0.0955 -0.36122,0.18087 -0.84893,0.2479 -1.62971,0.69179 -2.16369,1.2299 -0.54858,0.55281 -0.9892,1.30807 -1.27434,2.18488 -0.11706,0.35993 -0.13396,0.39235 -0.22635,0.43615 v 5.1e-4 c -0.0986,0.0463 -0.18512,0.0446 -0.26665,-0.005 -0.0944,-0.0577 -0.11249,-0.0862 -0.15141,-0.23667 -0.13092,-0.5061 -0.40139,-1.12649 -0.68316,-1.56787 -0.58184,-0.91144 -1.52806,-1.59495 -2.76521,-1.99729 -0.15694,-0.051 -0.31221,-0.10639 -0.3452,-0.12299 -0.0867,-0.0437 -0.13375,-0.14764 -0.1204,-0.26613 0.0172,-0.15288 0.0868,-0.20383 0.41083,-0.29973 0.91815,-0.27187 1.69511,-0.73042 2.25205,-1.32963 0.18169,-0.19548 0.31349,-0.36771 0.4961,-0.64647 0.29592,-0.45175 0.48776,-0.85988 0.68523,-1.45986 0.10124,-0.3076 0.11845,-0.34424 0.18603,-0.38964 0.0596,-0.04 0.13028,-0.0543 0.19792,-0.045 z m 19.33991,1.22421 c 0.10971,0 0.16256,0.0762 0.25166,0.36225 0.10383,0.33336 0.27793,0.70239 0.46561,0.98599 0.38577,0.58291 1.07402,1.07119 1.87895,1.33274 0.24171,0.0786 0.28581,0.10006 0.31316,0.15296 0.04,0.0773 0.0398,0.11585 0,0.19275 -0.0272,0.0527 -0.0735,0.075 -0.33486,0.16072 -0.58142,0.19068 -1.01536,0.4377 -1.37098,0.78031 -0.43013,0.4144 -0.73206,0.91591 -0.94981,1.57768 -0.0443,0.13446 -0.098,0.26027 -0.11937,0.27957 -0.0213,0.0193 -0.0684,0.0416 -0.10491,0.0486 -0.11841,0.0237 -0.1747,-0.0517 -0.28267,-0.37983 -0.38785,-1.17868 -1.10974,-1.89061 -2.32957,-2.29701 -0.26535,-0.0884 -0.28427,-0.0988 -0.32556,-0.17467 l -0.0439,-0.0806 0.0439,-0.0791 c 0.0415,-0.075 0.0605,-0.0853 0.36173,-0.18397 0.59181,-0.1939 1.01325,-0.44187 1.39578,-0.82269 0.39044,-0.38868 0.69175,-0.89312 0.88626,-1.48259 0.0979,-0.29685 0.15227,-0.37311 0.26458,-0.37311 z m 21.335134,5.2e-4 c 0.11079,0 0.16231,0.0757 0.25941,0.37982 0.16032,0.50205 0.42826,0.98561 0.72864,1.31568 0.37562,0.41276 0.97184,0.77799 1.60817,0.98496 0.24148,0.0785 0.28586,0.10006 0.31316,0.15296 0.0175,0.0338 0.0313,0.0843 0.031,0.11214 -9.8e-4,0.10107 -0.0656,0.14323 -0.37775,0.24546 -0.60552,0.19831 -1.023,0.44502 -1.4118,0.83457 -0.39202,0.39279 -0.66702,0.85184 -0.87592,1.46245 -0.0555,0.16242 -0.11831,0.31239 -0.13901,0.33279 -0.0473,0.0465 -0.1341,0.0653 -0.1912,0.0413 -0.0746,-0.0314 -0.11543,-0.0951 -0.15193,-0.23667 -0.0834,-0.32355 -0.2819,-0.76248 -0.4842,-1.07126 -0.40029,-0.61099 -1.00516,-1.05034 -1.84382,-1.33945 -0.31115,-0.1073 -0.3316,-0.11819 -0.3731,-0.19379 l -0.0439,-0.0801 0.0439,-0.0791 c 0.0416,-0.0751 0.0607,-0.0846 0.36742,-0.185 0.38634,-0.12649 0.80747,-0.33714 1.07228,-0.53589 0.52811,-0.39635 0.96443,-1.03679 1.20561,-1.76888 0.0975,-0.29606 0.15174,-0.37207 0.26304,-0.37207 z m -10.99674,16.99638 c -18.588534,0.17847 -31.390034,11.10837 -35.780254,15.40268 0.0521,0.046 0.1037,0.0924 0.15503,0.13901 a 39.036358,39.036358 0 0 1 25.65993,-9.63146 39.036358,39.036358 0 0 1 33.049144,18.283118 c 2.77832,-1.26014 5.47351,-2.72853 8.04034,-4.45606 2.01306,-1.354808 3.9285,-2.849488 5.74332,-4.457598 -1.85597,-1.89827 -15.32307,-14.68061 -34.99476,-15.26109 -0.63045,-0.0186 -1.25482,-0.0245 -1.87275,-0.0186 z" /></g></svg>
